<svg id="Capa_1" enable-background="new 0 0 512 512" height="512" viewBox="0 0 512 512" width="512" xmlns="http://www.w3.org/2000/svg"><g><path d="m292.226 77.061c6.77-8.151 10.846-18.614 10.846-30.011-.001-25.944-21.117-47.05-47.072-47.05s-47.071 21.106-47.071 47.05c0 11.397 4.076 21.86 10.846 30.011-44.743 7.398-85.971 28.478-118.679 61.166-41.378 41.354-64.166 96.337-64.166 154.823s22.788 113.469 64.166 154.823c41.377 41.353 96.389 64.127 154.904 64.127s113.527-22.774 154.904-64.127c41.378-41.354 64.166-96.338 64.166-154.823s-22.788-113.469-64.166-154.823c-32.707-32.689-73.935-53.768-118.678-61.166zm150.441 225.989h12.154c-2.357 47.355-21.36 90.405-51.267 123.412l-8.49-8.49c-3.906-3.904-10.236-3.904-14.143 0-3.905 3.905-3.905 10.237 0 14.143l8.481 8.481c-33.016 29.844-76.059 48.804-123.403 51.156v-12.036c0-5.522-4.478-10-10-10s-10 4.478-10 10v12.036c-47.344-2.352-90.387-21.312-123.403-51.156l8.481-8.481c3.905-3.905 3.905-10.237 0-14.143-3.906-3.904-10.236-3.904-14.143 0l-8.49 8.49c-29.907-33.006-48.91-76.056-51.267-123.412h12.154c5.522 0 10-4.478 10-10s-4.478-10-10-10h-12.152c2.357-47.355 21.36-90.405 51.267-123.412l8.49 8.49c1.953 1.952 4.512 2.929 7.071 2.929s5.118-.977 7.071-2.929c3.905-3.905 3.905-10.237 0-14.143l-8.481-8.481c33.016-29.844 76.059-48.804 123.403-51.156v12.035c0 5.522 4.478 10 10 10s10-4.478 10-10v-12.035c47.344 2.352 90.387 21.312 123.403 51.156l-8.481 8.481c-3.905 3.905-3.905 10.237 0 14.143 1.953 1.952 4.512 2.929 7.071 2.929s5.118-.977 7.071-2.929l8.49-8.49c29.907 33.006 48.91 76.056 51.267 123.412h-12.154c-5.522 0-10 4.478-10 10s4.478 10 10 10zm-186.667-283.05c14.927 0 27.071 12.135 27.071 27.05 0 11.387-7.079 21.154-17.071 25.137v-19.935c0-5.522-4.478-10-10-10s-10 4.478-10 10v19.935c-9.992-3.983-17.071-13.749-17.071-25.137 0-14.915 12.144-27.05 27.071-27.05z"/><path d="m256 134.05c-5.522 0-10 4.478-10 10v18.231c-31.431 2.357-60.652 15.794-83.07 38.377-24.551 24.73-38.071 57.542-38.071 92.392 0 72.312 58.83 131.142 131.142 131.142 52.093 0 99.195-31.059 120.011-78.19l17.28 6.098c1.101.389 2.223.573 3.327.573 4.12 0 7.979-2.566 9.429-6.672 5.997-16.976 9.038-34.791 9.038-52.95-.001-87.674-71.366-159.001-159.086-159.001zm0 270.141c-61.283 0-111.142-49.858-111.142-111.142 0-57.745 44.6-105.612 101.142-110.695v110.696c0 4.24 2.674 8.02 6.673 9.43l104.412 36.843c-17.949 39.159-57.45 64.868-101.085 64.868zm134.178-74.399-124.178-43.817v-131.57c72.044 5.138 129.085 65.358 129.085 138.645 0 12.511-1.648 24.828-4.907 36.742z"/><path d="m436.042 65.1c-5.522 0-10 4.478-10 10s4.478 10 10 10c30.855 0 55.958 25.103 55.958 55.957 0 5.522 4.478 10 10 10s10-4.478 10-10c0-41.883-34.074-75.957-75.958-75.957z"/><path d="m448 141.057c0 5.522 4.478 10 10 10s10-4.478 10-10c0-17.622-14.336-31.958-31.958-31.958-5.522 0-10 4.478-10 10s4.478 10 10 10c6.594 0 11.958 5.364 11.958 11.958z"/><path d="m85.958 75.1c0-5.522-4.478-10-10-10-41.884 0-75.958 34.074-75.958 75.957 0 5.522 4.478 10 10 10s10-4.478 10-10c0-30.855 25.103-55.957 55.958-55.957 5.522 0 10-4.478 10-10z"/><path d="m75.958 109.099c-17.622 0-31.958 14.336-31.958 31.958 0 5.522 4.478 10 10 10s10-4.478 10-10c0-6.594 5.364-11.958 11.958-11.958 5.522 0 10-4.478 10-10s-4.478-10-10-10z"/></g></svg>