<svg id="Capa_1" enable-background="new 0 0 512 512" height="512" viewBox="0 0 512 512" width="512" xmlns="http://www.w3.org/2000/svg"><g><path d="m91.203 160.936h-17.046c-5.523 0-10 4.478-10 10s4.477 10 10 10h17.046c5.523 0 10-4.478 10-10s-4.477-10-10-10z"/><path d="m151.167 160.936h-17.046c-5.523 0-10 4.478-10 10s4.477 10 10 10h17.046c5.523 0 10-4.478 10-10s-4.477-10-10-10z"/><path d="m211.131 160.936h-17.046c-5.523 0-10 4.478-10 10s4.477 10 10 10h17.046c5.523 0 10-4.478 10-10s-4.477-10-10-10z"/><path d="m91.203 236.438h-17.046c-5.523 0-10 4.478-10 10s4.477 10 10 10h17.046c5.523 0 10-4.478 10-10s-4.477-10-10-10z"/><path d="m151.167 236.438h-17.046c-5.523 0-10 4.478-10 10s4.477 10 10 10h17.046c5.523 0 10-4.478 10-10s-4.477-10-10-10z"/><path d="m211.131 236.438h-17.046c-5.523 0-10 4.478-10 10s4.477 10 10 10h17.046c5.523 0 10-4.478 10-10s-4.477-10-10-10z"/><path d="m91.203 311.94h-17.046c-5.523 0-10 4.478-10 10s4.477 10 10 10h17.046c5.523 0 10-4.478 10-10s-4.477-10-10-10z"/><path d="m151.167 311.94h-17.046c-5.523 0-10 4.478-10 10s4.477 10 10 10h17.046c5.523 0 10-4.478 10-10s-4.477-10-10-10z"/><path d="m211.131 311.94h-17.046c-5.523 0-10 4.478-10 10s4.477 10 10 10h17.046c5.523 0 10-4.478 10-10s-4.477-10-10-10z"/><path d="m91.203 387.443h-17.046c-5.523 0-10 4.478-10 10s4.477 10 10 10h17.046c5.523 0 10-4.478 10-10s-4.477-10-10-10z"/><path d="m151.167 387.443h-17.046c-5.523 0-10 4.478-10 10s4.477 10 10 10h17.046c5.523 0 10-4.478 10-10s-4.477-10-10-10z"/><path d="m211.131 387.443h-17.046c-5.523 0-10 4.478-10 10s4.477 10 10 10h17.046c5.523 0 10-4.478 10-10s-4.477-10-10-10z"/><path d="m502 289.527h-236.914l-7.969-167.789c-.706-14.857-12.91-26.496-27.785-26.496h-25.297c-2.235-31.917-28.916-57.202-61.392-57.202s-59.156 25.285-61.391 57.202h-28.375c-14.875 0-27.079 11.639-27.783 26.468l-16.726 332.383c-4.746.78-8.368 4.9-8.368 9.867 0 5.522 4.477 10 10 10h492c5.522 0 10-4.478 10-10v-164.433c0-5.522-4.478-10-10-10zm-236.558 20h62.405c-.9 18.243-16.03 32.808-34.499 32.808-11.164 0-21.411-5.254-27.906-14.179zm-122.798-251.487c21.441 0 39.141 16.327 41.318 37.202h-82.636c2.177-20.875 19.877-37.202 41.318-37.202zm-97.574 64.648c.198-4.175 3.627-7.445 7.807-7.445h176.455c4.18 0 7.609 3.271 7.807 7.445l8.352 175.843c-.032.328-.049.661-.049.997v154.334h-217.037zm290.17 331.272c-.046-.658-.068-1.319-.068-1.983 0-15.781 12.844-28.62 28.632-28.62 15.781 0 28.62 12.839 28.62 28.62 0 .664-.022 1.325-.068 1.983zm77.144 0c.027-.66.04-1.321.04-1.983 0-26.81-21.811-48.62-48.62-48.62-26.815 0-48.632 21.811-48.632 48.62 0 .662.014 1.324.04 1.983h-49.771v-99.249c8.278 4.928 17.856 7.624 27.907 7.624 29.497 0 53.601-23.534 54.515-52.808h144.137v18.1c-2.244-.28-4.514-.421-6.804-.421-30.074 0-54.541 24.463-54.541 54.531 0 30.074 24.467 54.542 54.541 54.542 2.29 0 4.56-.141 6.804-.421v18.1h-79.616zm79.616-38.348c-2.224.444-4.497.668-6.804.668-19.046 0-34.541-15.495-34.541-34.542 0-19.041 15.495-34.531 34.541-34.531 2.307 0 4.58.224 6.804.668z"/></g></svg>