<svg id="Capa_1" enable-background="new 0 0 512.007 512.007" height="512" viewBox="0 0 512.007 512.007" width="512" xmlns="http://www.w3.org/2000/svg"><g><path d="m505.388 345.265c-5.078-6.413-12.35-10.465-20.476-11.409l-77.831-9.042c-5.488-.623-10.449 3.293-11.088 8.779l-1.228 10.564-25.915-3.01 1.341-11.542c.637-5.484-3.292-10.447-8.776-11.086l-348.121-40.567c-2.632-.308-5.283.445-7.363 2.092-2.08 1.646-3.421 4.051-3.727 6.686l-1.514 13.012c-3.121 26.861 4.407 53.329 21.198 74.529 16.791 21.199 40.834 34.593 67.693 37.714l166.815 19.503c.002 0 .005 0 .007.001 3.954.459 7.876.683 11.764.683 44.472 0 83.719-29.34 96.685-71.354l27.604 3.206-1.228 10.564c-.306 2.635.447 5.283 2.094 7.362s4.052 3.419 6.686 3.726l77.832 9.042c1.195.139 2.382.206 3.557.206 15.32 0 28.589-11.514 30.399-27.093.002-.023.005-.05.008-.076.928-8.107-1.35-16.092-6.416-22.49zm-156.574-4.962c-5.171 44.497-45.605 76.501-90.101 71.319l-166.816-19.503c-21.562-2.505-40.856-13.253-54.33-30.265s-19.515-38.25-17.01-59.804l.357-3.075 328.256 38.251zm143.119 25.2c-.003.019-.005.039-.008.062-.695 5.798-5.972 9.974-11.775 9.286l-67.898-7.888 2.455-21.129 67.897 7.889c2.819.327 5.343 1.732 7.104 3.958 1.762 2.224 2.552 5.003 2.225 7.822z"/><path d="m79.93 207.765 223.719 67.676c3.152.954 6.338 1.408 9.474 1.408 14.069-.001 27.107-9.142 31.386-23.284 2.535-8.379 1.656-17.243-2.477-24.96-4.133-7.718-11.023-13.363-19.402-15.897l-223.719-67.677c-4.692-1.42-8.556-4.591-10.879-8.93-2.323-4.338-2.821-9.311-1.402-14.002 2.535-8.379 1.655-17.242-2.478-24.959s-11.023-13.362-19.402-15.896c-17.296-5.236-35.628 4.581-40.859 21.876-6.484 21.43-4.221 44.127 6.374 63.911s28.233 34.251 49.665 40.734zm-36.897-98.853c1.668-5.512 6.749-9.073 12.232-9.073 1.223 0 2.465.177 3.693.548 3.267.988 5.952 3.188 7.563 6.196 1.61 3.007 1.953 6.461.966 9.725-2.967 9.805-1.932 20.187 2.914 29.236 4.846 9.048 12.914 15.664 22.719 18.63l223.718 67.676c3.266.988 5.951 3.188 7.563 6.196 1.61 3.007 1.953 6.461.965 9.727-2.04 6.74-9.188 10.559-15.926 8.525l-223.719-67.676c-16.318-4.937-29.752-15.957-37.825-31.032-8.073-15.074-9.799-32.361-4.863-48.678z"/><path d="m51.923 231.517v22.462c0 5.522 4.478 10 10 10s10-4.478 10-10v-22.462c0-5.522-4.478-10-10-10s-10 4.477-10 10z"/><path d="m99.916 251.427v22.461c0 5.522 4.478 10 10 10s10-4.478 10-10v-22.461c0-5.522-4.478-10-10-10s-10 4.477-10 10z"/></g></svg>