<svg id="Capa_1" enable-background="new 0 0 512 512" height="512" viewBox="0 0 512 512" width="512" xmlns="http://www.w3.org/2000/svg"><g><path d="m121.383 452.627h269.234c5.523 0 10-4.478 10-10v-258.156c0-5.522-4.477-10-10-10h-269.234c-5.523 0-10 4.478-10 10v258.156c0 5.522 4.477 10 10 10zm10-258.156h249.234v238.156h-249.234z"/><path d="m419.86 0h-327.72c-22.153 0-40.175 17.975-40.175 40.068v461.932c0 5.522 4.477 10 10 10h388.07c5.523 0 10-4.478 10-10v-461.932c0-22.093-18.022-40.068-40.175-40.068zm-347.895 40.068c0-11.065 9.05-20.068 20.175-20.068h327.72c11.125 0 20.175 9.003 20.175 20.068v75.412h-368.07zm368.07 451.932h-368.07v-356.52h368.07z"/><path d="m364.228 36.443c-17.299 0-31.372 14.04-31.372 31.297s14.073 31.297 31.372 31.297 31.372-14.04 31.372-31.297-14.073-31.297-31.372-31.297zm0 42.594c-6.271 0-11.372-5.067-11.372-11.297s5.102-11.297 11.372-11.297 11.372 5.068 11.372 11.297-5.101 11.297-11.372 11.297z"/><path d="m147.772 36.443c-17.299 0-31.372 14.04-31.372 31.297s14.073 31.297 31.372 31.297 31.372-14.04 31.372-31.297-14.073-31.297-31.372-31.297zm0 42.594c-6.271 0-11.372-5.067-11.372-11.297s5.102-11.297 11.372-11.297 11.372 5.067 11.372 11.297-5.102 11.297-11.372 11.297z"/><path d="m256 36.443c-17.299 0-31.372 14.04-31.372 31.297s14.073 31.297 31.372 31.297 31.372-14.04 31.372-31.297-14.073-31.297-31.372-31.297zm0 42.594c-6.271 0-11.372-5.067-11.372-11.297s5.101-11.297 11.372-11.297 11.372 5.067 11.372 11.297-5.101 11.297-11.372 11.297z"/><path d="m353.575 207.17c-5.523 0-10 4.478-10 10v8.383h-175.15v-8.383c0-5.522-4.477-10-10-10s-10 4.478-10 10v18.383c0 5.522 4.477 10 10 10h195.149c5.523 0 10-4.478 10-10v-18.383c.001-5.523-4.476-10-9.999-10z"/></g></svg>