<svg id="Capa_1" enable-background="new 0 0 512 512" height="512" viewBox="0 0 512 512" width="512" xmlns="http://www.w3.org/2000/svg"><path d="m502 394.757h-98.387c31.059-21.016 51.515-56.571 51.515-96.814v-107.85c0-5.522-4.478-10-10-10h-11.642c3.443-18.606-.077-36.56-.266-37.498-.797-3.944-3.88-7.028-7.825-7.824-1.793-.361-44.172-8.601-66.734 13.963-2.128 2.128-4.043 4.479-5.744 7.049-1.701-2.569-3.615-4.921-5.743-7.049-22.565-22.563-64.944-14.325-66.735-13.963-3.945.796-7.028 3.88-7.825 7.824-.189.938-3.709 18.892-.266 37.498h-74.483l-48.033-107.128c-11.057-24.657-40.108-35.724-64.77-24.669-24.657 11.057-35.724 40.112-24.669 64.77 5.355 11.945 15.042 21.09 27.275 25.749 9.897 3.769 20.498 4.238 30.511 1.445l17.859 39.833h-69.166c-5.522 0-10 4.478-10 10v107.85c0 40.243 20.455 75.798 51.515 96.814h-98.387c-5.522 0-10 4.478-10 10v12.398c0 28.031 22.805 50.836 50.836 50.836h410.328c28.031 0 50.836-22.805 50.836-50.836v-12.398c0-5.523-4.478-10-10-10zm-129.198-231.881c10.092-10.093 29.76-10.611 41.767-9.464.675 7.144.82 17.455-1.545 26.681h-48.628c1.348-6.276 3.854-12.666 8.406-17.217zm-81.516-9.41c10.671-1.007 31.056-1.278 41.745 9.41 4.551 4.551 7.057 10.941 8.405 17.217h-48.641c-2.482-9.587-2.146-19.99-1.509-26.627zm-158.757-30.087c-1.132-2.524-3.258-4.467-5.874-5.366-2.613-.899-5.487-.674-7.931.62-.576.305-1.163.592-1.744.852-7.068 3.171-14.951 3.397-22.192.64s-12.975-8.17-16.145-15.24c-6.543-14.597.007-31.795 14.602-38.339s31.793.007 38.337 14.602l44.363 98.945h-17.988zm302.599 76.714v53.716h-358.256v-53.716zm-358.256 97.849v-24.134h358.256v24.134c0 53.384-43.432 96.814-96.815 96.814h-164.625c-53.384.001-96.816-43.43-96.816-96.814zm415.128 119.213c0 17.003-13.833 30.836-30.836 30.836h-410.328c-17.003 0-30.836-13.833-30.836-30.836v-2.398h472z"/></svg>