<svg id="Capa_1" enable-background="new 0 0 512 512" height="512" viewBox="0 0 512 512" width="512" xmlns="http://www.w3.org/2000/svg"><g><path d="m476.34 220.341h-11.836c-16.999-99.708-104.027-175.852-208.504-175.852s-191.505 76.144-208.504 175.852h-11.836c-19.663 0-35.66 15.997-35.66 35.659s15.997 35.659 35.66 35.659h11.836c16.999 99.708 104.027 175.852 208.504 175.852s191.505-76.144 208.504-175.852h11.836c19.663 0 35.66-15.997 35.66-35.659s-15.997-35.659-35.66-35.659zm-440.68 51.318c-8.635 0-15.66-7.024-15.66-15.659s7.025-15.659 15.66-15.659h9.403c-.38 5.171-.574 10.393-.574 15.659s.194 10.488.574 15.659zm220.34 175.852c-105.6 0-191.511-85.911-191.511-191.511s85.911-191.511 191.511-191.511 191.511 85.911 191.511 191.511-85.911 191.511-191.511 191.511zm220.34-175.852h-9.403c.38-5.171.574-10.393.574-15.659s-.194-10.488-.574-15.659h9.403c8.635 0 15.66 7.024 15.66 15.659s-7.025 15.659-15.66 15.659z"/><path d="m218.32 309.896h82.637c16.487 0 30-12.696 30.765-28.903.026-.541.038-1.078.038-1.611 0-4.557-.933-8.9-2.617-12.849 8.887-.039 17.562-3.712 23.821-10.091 6.224-6.343 9.56-14.649 9.394-23.389-.336-17.765-15.07-32.218-32.842-32.218h-6.53c-7.078-.006-12.837-5.77-12.837-12.848 0-7.079 5.759-12.843 12.829-12.849h6.024c8.937 0 17.67-3.678 23.962-10.091 6.224-6.343 9.56-14.649 9.394-23.39-.336-17.765-15.07-32.217-32.842-32.217h-111.196c-55.265 0-100.227 44.962-100.227 100.227.001 55.268 44.962 100.229 100.227 100.229zm0-180.454h111.195c6.952 0 12.714 5.65 12.846 12.596.063 3.327-1.242 6.525-3.673 9.004-2.556 2.604-6.086 4.098-9.687 4.098h-6.033c-18.097.016-32.82 14.751-32.82 32.849 0 18.097 14.723 32.832 32.829 32.848h6.539c6.952 0 12.714 5.651 12.846 12.597.063 3.327-1.241 6.524-3.673 9.002-2.555 2.604-6.086 4.099-9.688 4.099h-30.088c-5.523 0-10 4.478-10 10s4.477 10 10 10c7.084 0 12.848 5.764 12.848 12.849 0 .221-.005.443-.016.668-.256 5.43-5.096 9.847-10.788 9.847h-82.637c-44.237 0-80.227-35.99-80.227-80.228s35.99-80.229 80.227-80.229z"/><path d="m217.797 261.275c28.431 0 51.562-23.15 51.562-51.606 0-28.455-23.13-51.605-51.562-51.605s-51.562 23.15-51.562 51.605c0 28.456 23.131 51.606 51.562 51.606zm0-83.212c17.403 0 31.562 14.178 31.562 31.605s-14.159 31.606-31.562 31.606-31.562-14.179-31.562-31.606 14.159-31.605 31.562-31.605z"/><path d="m316.234 318.021c-14.309 0-26.749 8.156-32.916 20.063-7.69-5.553-17.128-8.83-27.318-8.83-25.787 0-46.766 20.979-46.766 46.767s20.979 46.766 46.766 46.766c21.351 0 39.406-14.381 44.986-33.966 4.653 2.11 9.816 3.286 15.248 3.286 20.425 0 37.042-16.617 37.042-37.043 0-20.425-16.617-37.043-37.042-37.043zm-60.234 84.766c-14.759 0-26.766-12.007-26.766-26.766s12.007-26.767 26.766-26.767c11.304 0 20.994 7.044 24.911 16.973.215.678.448 1.349.701 2.01.75 2.464 1.155 5.078 1.155 7.784-.001 14.759-12.008 26.766-26.767 26.766zm60.234-30.681c-7.098 0-13.196-4.362-15.756-10.546-.198-.606-.408-1.207-.629-1.802-.428-1.492-.658-3.067-.658-4.695 0-9.397 7.645-17.042 17.042-17.042s17.042 7.645 17.042 17.042-7.644 17.043-17.041 17.043z"/><path d="m348.96 292.896c0 18.993 15.453 34.445 34.446 34.445s34.446-15.452 34.446-34.445c0-18.994-15.452-34.446-34.446-34.446s-34.446 15.452-34.446 34.446zm48.892 0c0 7.965-6.48 14.445-14.446 14.445s-14.446-6.48-14.446-14.445c0-7.966 6.48-14.446 14.446-14.446s14.446 6.481 14.446 14.446z"/><path d="m166.127 311.937c-20.425 0-37.042 16.617-37.042 37.042 0 20.426 16.617 37.043 37.042 37.043 20.426 0 37.043-16.617 37.043-37.043 0-20.425-16.617-37.042-37.043-37.042zm0 54.084c-9.397 0-17.042-7.646-17.042-17.043s7.645-17.042 17.042-17.042 17.043 7.645 17.043 17.042-7.645 17.043-17.043 17.043z"/></g></svg>