<svg id="Capa_1" enable-background="new 0 0 512 512" height="512" viewBox="0 0 512 512" width="512" xmlns="http://www.w3.org/2000/svg"><g><path d="m368.506 0h-225.012c-14.005 0-25.4 11.395-25.4 25.4v461.2c0 14.006 11.395 25.4 25.4 25.4h225.013c14.005 0 25.4-11.395 25.4-25.4v-461.2c-.001-14.005-11.395-25.4-25.401-25.4zm-230.412 25.4c0-2.978 2.422-5.4 5.4-5.4h225.013c2.978 0 5.4 2.423 5.4 5.4v183.146h-235.813zm235.812 461.2c0 2.978-2.422 5.4-5.4 5.4h-225.012c-2.978 0-5.4-2.423-5.4-5.4v-258.053h235.813v258.053z"/><path d="m339.906 44h-167.812c-5.523 0-10 4.478-10 10v120.547c0 5.522 4.477 10 10 10h167.813c5.523 0 10-4.478 10-10v-120.547c-.001-5.522-4.478-10-10.001-10zm-10 120.547h-147.812v-100.547h147.813v100.547z"/><path d="m172.094 468h167.813c5.523 0 10-4.478 10-10v-195.453c0-5.522-4.477-10-10-10h-167.813c-5.523 0-10 4.478-10 10v195.453c0 5.522 4.477 10 10 10zm10-195.453h147.813v175.453h-147.813z"/><path d="m209.915 285.255c-5.523 0-10 4.478-10 10v94.979c0 5.522 4.477 10 10 10s10-4.478 10-10v-94.979c0-5.523-4.477-10-10-10z"/><path d="m209.915 144.145c5.523 0 10-4.478 10-10v-39.743c0-5.522-4.477-10-10-10s-10 4.478-10 10v39.742c0 5.523 4.477 10.001 10 10.001z"/></g></svg>