<svg id="Capa_1" enable-background="new 0 0 512 512" height="512" viewBox="0 0 512 512" width="512" xmlns="http://www.w3.org/2000/svg"><g><path d="m512 248.221v-73.621c0-5.522-4.477-10-10-10h-292.809c-5.523 0-10 4.478-10 10v73.621c0 48.412 25.675 90.94 64.124 114.683h-48.831c-5.523 0-10 4.478-10 10s4.477 10 10 10h282.221c5.523 0 10-4.478 10-10s-4.477-10-10-10h-48.83c38.45-23.743 64.125-66.271 64.125-114.683zm-20-63.621v39.357h-272.809v-39.357zm-114.682 178.303h-43.444c-63.236 0-114.682-51.446-114.682-114.683v-4.264h272.808v4.264c0 63.237-51.446 114.683-114.682 114.683z"/><path d="m93.205 129.097c-24.614 0-48.644 19.688-67.663 55.437-15.516 29.164-25.542 65.926-25.542 93.654 0 57.74 41.812 104.715 93.205 104.715 51.394 0 93.205-46.975 93.205-104.715 0-27.729-10.026-64.49-25.542-93.655-19.019-35.749-43.049-55.436-67.663-55.436zm0 233.806c-40.366 0-73.205-38.003-73.205-84.715 0-48.559 35.457-129.092 73.205-129.092s73.205 80.533 73.205 129.092c0 46.712-32.84 84.715-73.205 84.715z"/><path d="m93.205 318.112c-15.17 0-28.478-18.656-28.478-39.924 0-5.522-4.477-10-10-10s-10 4.478-10 10c0 15.285 4.793 29.922 13.497 41.215 9.164 11.89 21.914 18.709 34.981 18.709 5.523 0 10-4.478 10-10s-4.477-10-10-10z"/></g></svg>