<svg id="Capa_1" enable-background="new 0 0 512 512" height="512" viewBox="0 0 512 512" width="512" xmlns="http://www.w3.org/2000/svg"><g><path d="m481.421 321.271h-78.171c-5.522 0-10 4.478-10 10v10.59h-25.983v-11.571c0-5.522-4.478-10-10-10h-347.267c-5.522 0-10 4.478-10 10v13.062c0 55.716 45.328 101.044 101.044 101.044h165.179c49.395 0 90.626-35.627 99.345-82.534h27.683v10.591c0 5.522 4.478 10 10 10h78.171c16.861 0 30.579-13.718 30.579-30.602-.001-16.862-13.719-30.58-30.58-30.58zm-134.154 22.08c0 44.688-36.356 81.044-81.044 81.044h-165.179c-44.688 0-81.044-36.356-81.044-81.044v-3.062h327.267zm134.154 19.101h-68.171v-21.181h68.171c5.833 0 10.579 4.746 10.579 10.602 0 5.833-4.746 10.579-10.579 10.579z"/><path d="m168.175 240.984c6.605 6.605 15.388 10.243 24.729 10.243s18.123-3.638 24.729-10.243c4.064-4.064 7.004-8.952 8.665-14.287.897.255 1.822.384 2.747.384 2.559 0 5.118-.977 7.071-2.929 3.905-3.905 3.905-10.237 0-14.143l-.583-.583 49.23-29.97c11.824-7.198 19.55-19.21 21.197-32.954 1.646-13.745-3.022-27.241-12.811-37.029l-28.733-28.734c-9.788-9.788-23.288-14.454-37.029-12.811-13.744 1.647-25.756 9.374-32.955 21.198l-29.969 49.229-.583-.583c-3.905-3.903-10.235-3.904-14.143 0-2.659 2.659-3.507 6.442-2.545 9.819-5.335 1.661-10.223 4.6-14.287 8.664-6.605 6.605-10.243 15.388-10.243 24.729s3.638 18.123 10.243 24.729zm43.341-141.457c3.986-6.549 10.639-10.828 18.251-11.74 7.607-.908 15.086 1.674 20.507 7.095l28.733 28.734c5.421 5.421 8.007 12.895 7.095 20.507s-5.19 14.264-11.739 18.25l-53.385 32.499-41.961-41.961zm-64.468 70.872c2.827-2.828 6.587-4.385 10.586-4.385s7.759 1.557 10.586 4.385l35.27 35.27c5.838 5.837 5.838 15.336 0 21.173-5.836 5.838-15.336 5.838-21.172 0l-35.27-35.27c-5.838-5.837-5.838-15.336 0-21.173z"/><path d="m128.317 250.401c5.522 0 10-4.478 10-10v-6.566c0-5.522-4.478-10-10-10s-10 4.478-10 10v6.566c0 5.523 4.478 10 10 10z"/><path d="m143.046 268.358v6.567c0 5.522 4.478 10 10 10s10-4.478 10-10v-6.567c0-5.522-4.478-10-10-10s-10 4.478-10 10z"/><path d="m178.72 283.778v6.566c0 5.522 4.478 10 10 10s10-4.478 10-10v-6.566c0-5.522-4.478-10-10-10s-10 4.478-10 10z"/><path d="m114.129 293.778c5.522 0 10-4.478 10-10v-6.567c0-5.522-4.478-10-10-10s-10 4.478-10 10v6.567c0 5.523 4.477 10 10 10z"/></g></svg>