<svg id="Capa_1" enable-background="new 0 0 512 512" height="512" viewBox="0 0 512 512" width="512" xmlns="http://www.w3.org/2000/svg"><path d="m502 102.93h-154.969l-55.027-41.215c1.076-3.497 1.655-7.209 1.655-11.054 0-20.766-16.894-37.659-37.659-37.659s-37.659 16.894-37.659 37.659c0 3.845.58 7.557 1.656 11.054l-55.028 41.215h-154.969c-5.522 0-10 4.478-10 10v92.745c0 5.522 4.478 10 10 10h70.484v97.024c0 5.522 4.478 10 10 10h21.474v50.038h-8.326c-18.111 0-32.847 14.735-32.847 32.847v77.688c0 5.522 4.478 10 10 10h82.346c5.522 0 10-4.478 10-10v-77.688c0-18.111-14.735-32.847-32.848-32.847h-8.325v-50.038h21.474c5.522 0 10-4.478 10-10v-97.024h50.002v52.293c0 5.522 4.478 10 10 10h.353v211.03c0 5.522 4.478 10 10 10 23.618 0 42.781-14.308 55.418-41.375 9.317-19.958 14.661-46.372 14.661-72.469v-56.633c0-16.616-11.185-30.669-26.421-35.025v-15.528h2.732c5.522 0 10-4.478 10-10v-52.293h84.356v72.675c0 5.522 4.478 10 10 10h16.943v14.484c-34.474 5.97-58.561 42.779-58.561 91.897 0 53.742 28.834 92.748 68.561 92.748 39.728 0 68.562-39.006 68.562-92.748 0-49.119-24.086-85.927-58.562-91.897v-14.484h16.944c5.522 0 10-4.478 10-10v-72.675h53.58c5.522 0 10-4.478 10-10v-92.745c0-5.523-4.478-10-10-10zm-348.869 302.654v67.688h-62.346v-67.688c0-7.084 5.763-12.847 12.847-12.847h36.651c7.084 0 12.848 5.763 12.848 12.847zm258.346 71.712c-4.298-2.947-14.46-23.678-14.46-72.564s10.162-69.617 14.46-72.564c4.298 2.947 14.46 23.678 14.46 72.564s-10.163 69.617-14.46 72.564zm-48.561-72.565c0-26.606 8.136-48.608 21.214-61.218-5.014 17.323-7.113 39.627-7.113 61.218s2.099 43.894 7.113 61.218c-13.078-12.61-21.214-34.611-21.214-61.218zm97.122 0c0 26.607-8.137 48.609-21.215 61.219 5.014-17.324 7.113-39.627 7.113-61.219s-2.099-43.895-7.113-61.219c13.078 12.611 21.215 34.612 21.215 61.219zm-204.038-371.729c9.737 0 17.659 7.922 17.659 17.659 0 9.738-7.922 17.66-17.659 17.66s-17.659-7.922-17.659-17.66c0-9.737 7.922-17.659 17.659-17.659zm-25.207 45.615c6.679 6.029 15.522 9.704 25.207 9.704s18.528-3.676 25.207-9.705l32.461 24.313h-115.336zm-87.361 224.082h-42.947v-126.245c0-11.841 9.633-21.474 21.474-21.474s21.474 9.633 21.474 21.474v126.245zm126.745-44.731h-36.743v-84.615c0-10.131 8.241-18.372 18.371-18.372 10.131 0 18.372 8.241 18.372 18.372zm-2.733 54.133c9.055 0 16.421 7.366 16.421 16.421v56.633c0 22.934-4.779 46.862-12.784 64.009-7.166 15.349-16.317 24.831-27.295 28.317v-199.513h13.658v24.133c0 5.522 4.478 10 10 10zm160.977-33.751h-33.888v-106.426c0-9.343 7.601-16.943 16.943-16.943s16.944 7.601 16.944 16.943v106.426zm63.579-82.675h-43.579v-23.751c0-20.371-16.573-36.943-36.944-36.943s-36.943 16.572-36.943 36.943v23.751h-84.356v-22.322c0-21.158-17.214-38.372-38.372-38.372s-38.371 17.214-38.371 38.372v22.322h-50.002v-19.221c0-22.868-18.605-41.474-41.474-41.474s-41.474 18.605-41.474 41.474v19.221h-60.485v-72.745h472z"/></svg>