<svg id="Capa_1" enable-background="new 0 0 512 512" height="512" viewBox="0 0 512 512" width="512" xmlns="http://www.w3.org/2000/svg"><g><path d="m502 358.164h-134.231c9.583-7.872 17.552-17.814 23.21-29.363 17.473-4.654 31.055-17.632 36.749-34.234l9.455-2.041c2.85 6.422 7.501 11.885 13.538 15.784 5.971 3.857 12.774 5.85 19.715 5.85 2.581 0 5.181-.275 7.765-.833 19.663-4.244 32.212-23.71 27.974-43.393-1.65-7.661-5.719-14.507-11.446-19.604 3.12-7.007 4.011-14.922 2.361-22.584-2.053-9.534-7.693-17.697-15.879-22.987-8.191-5.292-17.951-7.073-27.48-5.016-17.146 3.701-28.882 18.974-28.797 35.871l-11.056 2.386c-9.616-9.121-22.595-14.723-36.856-14.723-2.292 0-4.582.146-6.848.436-16.121-14.284-36.642-22.091-58.352-22.091-5.555 0-10.991.517-16.264 1.506-26.985-38.037-80.333-64.187-132.078-64.187-39.483 0-79.414 15.736-109.555 43.175-31.462 28.64-48.788 66.05-48.788 105.338 0 24.623 5.927 48.754 17.264 70.71h-12.401c-5.523 0-10 4.478-10 10v20.404c0 25.584 20.814 46.398 46.398 46.398h419.203c25.584 0 46.398-20.814 46.398-46.398v-20.404c.001-5.523-4.476-10-9.999-10zm-63.726-104.971c2.748-.593 5.119-2.315 6.533-4.745s1.74-5.342.898-8.024c-.154-.49-.287-.995-.396-1.501-1.918-8.905 3.754-17.712 12.643-19.632 4.302-.927 8.707-.123 12.406 2.266 3.702 2.392 6.252 6.085 7.181 10.399 1.12 5.201-.348 10.664-3.928 14.611-2.166 2.389-3.047 5.675-2.367 8.827.68 3.151 2.838 5.782 5.796 7.064 4.882 2.117 8.464 6.485 9.584 11.686 1.918 8.906-3.754 17.714-12.642 19.632-4.304.931-8.708.124-12.407-2.266-3.702-2.392-6.252-6.085-7.182-10.4-.108-.504-.194-1.018-.256-1.526-.336-2.794-1.833-5.316-4.125-6.949-2.291-1.633-5.164-2.225-7.914-1.631l-11.563 2.496c-.399-6.256-1.873-12.224-4.24-17.721zm-78.347-11.674c2.45 2.444 5.991 3.444 9.357 2.653 2.518-.595 5.122-.896 7.737-.896 18.541 0 33.624 15.107 33.624 33.678 0 16.647-11.888 30.633-28.267 33.254-3.419.547-6.311 2.822-7.646 6.017-10.647 25.468-35.341 41.924-62.91 41.924-37.588 0-68.167-30.623-68.167-68.264s30.58-68.264 68.167-68.264c18.157.001 35.241 7.067 48.105 19.898zm-334.79 45.935c0-68.461 64.646-128.514 138.343-128.514 42.469 0 87.529 20.793 111.837 50.607-30.45 13.922-51.662 44.696-51.662 80.338 0 27.486 12.616 52.078 32.354 68.278h-210.648c-13.248-21.486-20.224-45.82-20.224-70.709zm466.863 101.114c0 14.557-11.842 26.398-26.398 26.398h-419.204c-14.556.001-26.398-11.841-26.398-26.398v-10.404h472z"/><path d="m280.927 290.952c5.523 0 10-4.478 10-10 0-9.291 7.559-16.85 16.85-16.85 5.523 0 10-4.478 10-10s-4.477-10-10-10c-20.319 0-36.85 16.53-36.85 36.85 0 5.522 4.477 10 10 10z"/><path d="m271.201 129.367-6.646 6.003c-4.098 3.702-4.42 10.025-.718 14.124 1.974 2.186 4.693 3.297 7.424 3.297 2.39 0 4.787-.852 6.7-2.579l6.647-6.004c5.698-5.148 8.836-12.074 8.836-19.504 0-7.429-3.138-14.354-8.836-19.504-1.468-1.325-2.244-2.938-2.244-4.661 0-1.725.776-3.338 2.243-4.663l1.574-1.422c4.099-3.702 4.42-10.025.718-14.124-3.702-4.098-10.025-4.419-14.124-.718l-1.576 1.423c-5.698 5.148-8.836 12.075-8.836 19.504s3.139 14.355 8.836 19.502c1.468 1.326 2.244 2.939 2.244 4.663.001 1.724-.775 3.338-2.242 4.663z"/><path d="m315.963 157.082-5.833 5.269c-4.099 3.702-4.419 10.025-.718 14.124 1.974 2.186 4.694 3.297 7.424 3.297 2.39 0 4.788-.852 6.7-2.579l5.833-5.269c5.261-4.753 8.159-11.154 8.159-18.025s-2.897-13.272-8.159-18.025c-1.024-.925-1.566-2.025-1.566-3.184s.542-2.259 1.566-3.185l1.381-1.248c4.098-3.702 4.418-10.026.716-14.124s-10.026-4.417-14.124-.716l-1.381 1.247c-5.261 4.753-8.159 11.154-8.159 18.025s2.897 13.272 8.159 18.025c1.024.925 1.566 2.025 1.566 3.184s-.54 2.259-1.564 3.184z"/></g></svg>