<svg id="Capa_1" enable-background="new 0 0 512 512" height="512" viewBox="0 0 512 512" width="512" xmlns="http://www.w3.org/2000/svg"><g><path d="m218.601 157.648c-15.752 0-28.567-12.653-28.567-28.206v-67.396h.925c5.523 0 10-4.478 10-10v-42.046c0-5.522-4.477-10-10-10h-72.846c-5.523 0-10 4.478-10 10v42.046c0 5.522 4.477 10 10 10h.925v67.396c0 15.553-12.815 28.206-28.567 28.206-18.609 0-33.75 15.04-33.75 33.527v287.297c-.001 18.488 15.14 33.528 33.749 33.528h128.13c18.61 0 33.75-15.04 33.75-33.527v-287.297c.001-18.488-15.139-33.528-33.749-33.528zm-90.488-137.648h52.846v22.046h-52.846zm104.238 458.473c0 7.459-6.168 13.527-13.75 13.527h-128.131c-7.582 0-13.75-6.068-13.75-13.527v-287.297c0-7.459 6.168-13.527 13.75-13.527 26.78 0 48.567-21.625 48.567-48.206v-67.397h30.997v67.396c0 26.581 21.787 48.206 48.567 48.206 7.582 0 13.75 6.068 13.75 13.527z"/><path d="m197.291 225.17h-85.511c-5.523 0-10 4.478-10 10v177.702c0 5.522 4.477 10 10 10h85.511c5.523 0 10-4.478 10-10v-177.702c0-5.523-4.477-10-10-10zm-10 177.702h-65.511v-157.702h65.511z"/><path d="m415.783 300.239c-9.445-1.282-18.556.088-26.35 3.466.121-2.478.193-4.958.217-7.44 9.194-3.337 38.943-15.919 50.891-42.568 13.915-31.038-2.483-67.408-3.188-68.941-2.091-4.548-7.222-6.849-12.012-5.385-1.613.494-39.675 12.449-53.589 43.487-3.943 8.796-5.452 18.02-5.573 26.757-3.402-3.192-7.262-6.076-11.627-8.409-26.052-13.923-58.422-1.952-59.788-1.436-4.683 1.771-7.334 6.732-6.204 11.61.33 1.422 8.367 34.985 34.418 48.906 9.506 5.08 19.85 6.713 29.225 6.713 6.367 0 12.287-.754 17.19-1.692-.743 12.053-2.776 23.907-6.029 35.379-.809-1.045-1.675-2.066-2.597-3.062-7.878-8.507-19.008-14.114-31.34-15.787-26.183-3.554-49.983 11.887-53.041 34.418-3.057 22.532 15.762 43.755 41.951 47.308 2.539.345 5.072.515 7.582.515 1.149 0 2.293-.036 3.43-.107-7.699 8.968-16.425 17.223-26.113 24.595-4.395 3.345-5.246 9.619-1.901 14.014 1.968 2.586 4.949 3.945 7.965 3.945.918 0 1.84-.126 2.737-.382 1.136 8.999 4.799 17.855 10.652 25.545 10.159 13.349 25.043 20.604 39.19 20.604 8.142 0 16.042-2.405 22.652-7.435 18.094-13.771 19.793-42.085 3.788-63.116v-.001c-8.465-11.122-20.213-18.014-32.081-20.002 8.354-12.071 15.291-25.125 20.642-38.934 7.049 7.273 17.019 12.482 28.508 14.042 2.365.321 4.726.479 7.065.479 9.035 0 17.736-2.368 25.05-6.893 9.828-6.081 16.032-15.268 17.471-25.867 2.866-21.12-14.715-41.004-39.191-44.326zm-94.757 83.507c-15.261-2.07-26.396-13.196-24.822-24.8 1.403-10.34 12.43-17.624 25.614-17.624 1.612 0 3.257.109 4.92.335 7.747 1.051 14.62 4.445 19.354 9.558 4.238 4.577 6.18 9.99 5.467 15.242-.712 5.253-4.026 9.953-9.331 13.235-5.926 3.665-13.456 5.106-21.202 4.054zm68.976-152.706c6.718-14.984 22.421-24.338 32.382-28.984 3.161 10.535 6.623 28.479-.093 43.46-6.718 14.984-22.421 24.337-32.382 28.983-3.161-10.535-6.624-28.478.093-43.459zm-57.597 51.609c-11.127-5.946-17.793-18.157-21.27-26.65 9.017-1.822 22.919-3.069 33.99 2.847 11.127 5.946 17.793 18.157 21.27 26.65-9.017 1.823-22.919 3.07-33.99-2.847zm39.999 151.205c9.327 12.255 9.334 27.996.015 35.088-9.318 7.094-24.487 2.892-33.815-9.365-4.735-6.221-7.195-13.481-6.928-20.444.239-6.232 2.694-11.433 6.912-14.643 3.071-2.338 6.778-3.448 10.702-3.448 7.981 0 16.861 4.596 23.114 12.812zm62.751-91.977c-.62 4.569-3.523 8.67-8.175 11.548-5.272 3.263-11.985 4.544-18.902 3.604-13.318-1.808-23.421-11.799-22.062-21.819 1.214-8.947 11.232-15.438 22.847-15.438 1.392 0 2.807.093 4.231.286 13.318 1.807 23.421 11.799 22.061 21.819z"/></g></svg>