<svg id="Capa_1" enable-background="new 0 0 512 512" height="512" viewBox="0 0 512 512" width="512" xmlns="http://www.w3.org/2000/svg"><g><path d="m221.936 118.452-17.462-37.49c-1.403-3.01-4.188-5.094-7.394-5.637l-8.934-66.653c-.665-4.966-4.901-8.672-9.911-8.672h-26.157c-5.009 0-9.246 3.706-9.911 8.672l-8.934 66.653c-3.206.543-5.992 2.626-7.394 5.637l-17.462 37.49c-13.135.141-23.777 10.866-23.777 24.028v122.798c-.002.091-.004.182-.004.274v152.767c0 .092.001.183.004.274v69.376c0 13.25 10.784 24.03 24.04 24.03h113.03c13.261 0 24.05-10.78 24.05-24.03v-345.489c0-13.161-10.645-23.885-23.784-24.028zm3.784 137.101h-121.12v-17.936c1.874.434 3.826.664 5.83.664 6.901 0 13.39-2.688 18.258-7.557 2.383-2.373 4.244-5.132 5.525-8.137 2.49.801 5.144 1.233 7.897 1.233 14.248 0 25.84-11.592 25.84-25.84v-59.526h47.614c.09 0 .181-.001.271-.004h5.836c2.233 0 4.05 1.808 4.05 4.03v113.073zm-121.12 20h121.118v132.767h-121.118zm36.677-180.368h47.759l10.836 23.266h-69.431zm19.55-75.185h8.659l7.396 55.185h-23.452zm-52.187 118.45h5.839c.09.002.18.004.271.004h33.2v59.526c0 3.22-2.62 5.84-5.84 5.84s-5.84-2.62-5.84-5.84c0-5.522-4.477-10-10-10s-10 4.478-10 10v14.459c0 1.563-.603 3.025-1.711 4.129-1.104 1.104-2.57 1.712-4.129 1.712-3.215 0-5.83-2.62-5.83-5.841v-69.959c0-2.222 1.812-4.03 4.04-4.03zm113.03 353.55h-113.03c-2.228 0-4.04-1.808-4.04-4.03v-59.65h121.12v59.65c0 2.222-1.817 4.03-4.05 4.03z"/><path d="m403.624 118.456-17.464-37.494c-1.403-3.01-4.188-5.094-7.393-5.637l-8.934-66.653c-.665-4.966-4.901-8.672-9.911-8.672h-26.158c-5.01 0-9.246 3.706-9.911 8.672l-8.934 66.653c-3.206.543-5.991 2.626-7.393 5.637l-17.464 37.494c-13.137.142-23.78 10.866-23.78 24.028v345.486c0 13.25 10.786 24.03 24.044 24.03h113.034c13.258 0 24.044-10.78 24.044-24.03v-345.487c0-13.162-10.643-23.885-23.78-24.027zm-61.111-98.456h8.66l7.396 55.185h-23.453zm-19.549 75.185h47.758l10.839 23.27h-69.436zm-32.639 43.269h113.035c2.229 0 4.044 1.808 4.044 4.029v113.069h-121.123v-113.069c0-2.221 1.815-4.029 4.044-4.029zm117.079 269.865h-121.123v-132.766h121.123zm-4.044 83.681h-113.035c-2.229 0-4.044-1.808-4.044-4.03v-59.65h121.123v59.65c0 2.222-1.814 4.03-4.044 4.03z"/><path d="m321.183 351.937h51.32c5.522 0 10-4.478 10-10s-4.478-10-10-10h-51.32c-5.522 0-10 4.478-10 10s4.477 10 10 10z"/><path d="m190.817 331.937h-51.321c-5.523 0-10 4.478-10 10s4.477 10 10 10h51.321c5.523 0 10-4.478 10-10s-4.477-10-10-10z"/></g></svg>