<svg id="Capa_1" enable-background="new 0 0 512 512" height="512" viewBox="0 0 512 512" width="512" xmlns="http://www.w3.org/2000/svg"><g><path d="m451.762 86.881h-391.524c-33.216 0-60.238 27.022-60.238 60.238v217.762c0 33.216 27.022 60.238 60.238 60.238h391.523c33.216 0 60.238-27.022 60.238-60.238v-217.762c.001-33.216-27.021-60.238-60.237-60.238zm40.238 278c0 22.188-18.051 40.238-40.238 40.238h-391.524c-22.187 0-40.238-18.051-40.238-40.238v-217.762c0-22.188 18.051-40.238 40.238-40.238h391.523c22.188 0 40.238 18.051 40.238 40.238v217.762z"/><path d="m404.477 135.863c-29.42 0-53.354 24.043-53.354 53.597s23.935 53.597 53.354 53.597 53.354-24.043 53.354-53.597-23.935-53.597-53.354-53.597zm0 87.194c-18.392 0-33.354-15.071-33.354-33.597s14.963-33.597 33.354-33.597 33.354 15.071 33.354 33.597-14.963 33.597-33.354 33.597z"/><path d="m256 135.863c-29.42 0-53.354 24.043-53.354 53.597s23.934 53.597 53.354 53.597 53.354-24.043 53.354-53.597-23.934-53.597-53.354-53.597zm0 87.194c-18.392 0-33.354-15.071-33.354-33.597s14.963-33.597 33.354-33.597 33.354 15.071 33.354 33.597-14.962 33.597-33.354 33.597z"/><path d="m107.523 135.863c-29.42 0-53.354 24.043-53.354 53.597s23.935 53.597 53.354 53.597 53.354-24.043 53.354-53.597-23.934-53.597-53.354-53.597zm0 87.194c-18.392 0-33.354-15.071-33.354-33.597s14.963-33.597 33.354-33.597 33.354 15.071 33.354 33.597-14.962 33.597-33.354 33.597z"/><path d="m404.477 268.943c-29.42 0-53.354 24.043-53.354 53.597s23.935 53.597 53.354 53.597 53.354-24.043 53.354-53.597-23.935-53.597-53.354-53.597zm0 87.194c-18.392 0-33.354-15.071-33.354-33.597s14.963-33.597 33.354-33.597 33.354 15.071 33.354 33.597-14.963 33.597-33.354 33.597z"/><path d="m256 268.943c-29.42 0-53.354 24.043-53.354 53.597s23.934 53.597 53.354 53.597 53.354-24.043 53.354-53.597-23.934-53.597-53.354-53.597zm0 87.194c-18.392 0-33.354-15.071-33.354-33.597s14.963-33.597 33.354-33.597 33.354 15.071 33.354 33.597-14.962 33.597-33.354 33.597z"/><path d="m107.523 268.943c-29.42 0-53.354 24.043-53.354 53.597s23.935 53.597 53.354 53.597 53.354-24.043 53.354-53.597-23.934-53.597-53.354-53.597zm0 87.194c-18.392 0-33.354-15.071-33.354-33.597s14.963-33.597 33.354-33.597 33.354 15.071 33.354 33.597-14.962 33.597-33.354 33.597z"/></g></svg>