<svg id="Capa_1" enable-background="new 0 0 512 512" height="512" viewBox="0 0 512 512" width="512" xmlns="http://www.w3.org/2000/svg"><g><path d="m432.421 0h-331.244c-17.423 0-31.598 14.143-31.598 31.525v448.949c0 17.383 14.143 31.525 31.526 31.525h331.316c5.522 0 10-4.478 10-10v-491.999c0-5.522-4.478-10-10-10zm-10 448.948h-282.059v-79.897h231.277c5.522 0 10-4.478 10-10v-281.186c0-5.522-4.478-10-10-10h-231.277v-47.865h282.059zm-282.059-361.083h221.277v261.186h-221.277zm-39.185-67.865h19.185v428.948h-19.257c-4.066 0-7.954.774-11.526 2.182v-419.605c0-6.355 5.203-11.525 11.598-11.525zm-11.598 460.475c0-6.355 5.17-11.526 11.526-11.526h321.316v23.051h-321.316c-6.355 0-11.526-5.17-11.526-11.525z"/><path d="m299.853 165.938c-1.003 0-2.002.04-2.996.121-8.519-14.062-24.029-23.051-40.856-23.051-16.828 0-32.338 8.989-40.857 23.051-.993-.081-1.992-.121-2.995-.121-20.139 0-36.524 16.343-36.524 36.432 0 15.705 10.014 29.12 24.007 34.228l3.844 41.324c.478 5.143 4.793 9.074 9.957 9.074h85.137c5.164 0 9.479-3.932 9.957-9.073l3.848-41.327c13.991-5.108 24.003-18.523 24.003-34.226-.002-20.089-16.387-36.432-36.525-36.432zm-77.308 101.058-2.699-29.012c4.754-1.022 9.253-2.981 13.233-5.758 6.985 3.813 14.885 5.858 22.921 5.858 8.035 0 15.936-2.045 22.921-5.858 3.981 2.777 8.48 4.737 13.236 5.758l-2.701 29.011h-66.911zm77.308-48.194c-4.808 0-9.369-2.078-12.516-5.701-1.974-2.273-4.755-3.444-7.556-3.444-2.218 0-4.449.734-6.3 2.238-4.986 4.05-11.031 6.19-17.481 6.19-6.451 0-12.495-2.141-17.48-6.19-4.188-3.402-10.319-2.867-13.856 1.205-3.146 3.624-7.708 5.702-12.516 5.702-9.111 0-16.524-7.371-16.524-16.432s7.413-16.432 16.524-16.432c1.839 0 3.641.296 5.356.879 5.106 1.738 10.675-.891 12.578-5.94 4.028-10.688 14.444-17.868 25.918-17.868s21.89 7.181 25.918 17.869c1.902 5.048 7.467 7.677 12.577 5.94 1.716-.584 3.519-.88 5.357-.88 9.111 0 16.523 7.371 16.523 16.432s-7.411 16.432-16.522 16.432z"/><path d="m326.376 396.906h-140.752c-5.523 0-10 4.478-10 10s4.477 10 10 10h140.752c5.522 0 10-4.478 10-10s-4.478-10-10-10z"/></g></svg>