<svg id="Capa_1" enable-background="new 0 0 512 512" height="512" viewBox="0 0 512 512" width="512" xmlns="http://www.w3.org/2000/svg"><g><path d="m258.332 208.313c-1.656-16.763-5.321-33.335-10.893-49.257-.079-.225-.166-.446-.259-.662-4.342-11.355-35.811-76.328-46.367-98.055.107-.586.163-1.189.163-1.806v-48.533c0-5.522-4.478-10-10-10h-67.843c-5.522 0-10 4.478-10 10v48.533c0 .616.056 1.219.163 1.805-10.785 22.197-43.402 89.543-46.611 98.719-.062.176-.118.353-.169.531-5.468 15.761-9.07 32.151-10.707 48.725-.683 6.905-1.028 13.917-1.028 20.841v241.55c0 22.771 18.734 41.296 41.762 41.296h120.993c11.254 0 21.807-4.359 29.715-12.276 7.78-7.788 12.059-18.108 12.047-29.059-.085-76.796-.348-256.092-.966-262.352zm-125.198-188.313h47.843v28.533h-47.843zm-1.584 48.533h51.01c13.502 27.776 31.029 64.192 40.11 83.826h-131.231c9.082-19.633 26.609-56.048 40.111-83.826zm101.551 417.057c-4.129 4.134-9.657 6.41-15.564 6.41h-120.994c-11.999 0-21.762-9.554-21.762-21.296v-241.55c0-6.27.313-12.62.931-18.874 1.27-12.847 3.841-25.57 7.66-37.921h147.396c3.808 12.314 6.377 25.002 7.65 37.812.367 6.432.712 108.547.879 260.516.007 5.603-2.193 10.896-6.196 14.903z"/><path d="m205.205 242.004h-96.331c-5.522 0-10 4.478-10 10v154.902c0 5.522 4.478 10 10 10h96.331c5.522 0 10-4.478 10-10v-154.902c0-5.523-4.477-10-10-10zm-10 154.902h-76.331v-134.902h76.331z"/><path d="m447.219 387.274h-1.747c1.927-4.259 3.001-8.983 3.001-13.954v-72.862c0-5.522-4.478-10-10-10h-143.277c-5.522 0-10 4.478-10 10v72.862c0 4.971 1.074 9.695 3.001 13.954h-1.746c-5.522 0-10 4.478-10 10v75.83c0 21.447 17.448 38.896 38.895 38.896h102.978c21.447 0 38.896-17.448 38.896-38.896v-75.83c-.001-5.522-4.479-10-10.001-10zm-142.023-13.954v-62.862h123.276v62.862c0 7.694-6.26 13.954-13.954 13.954h-95.368c-7.694 0-13.954-6.259-13.954-13.954zm132.023 99.784c0 10.419-8.477 18.896-18.896 18.896h-102.977c-10.419 0-18.895-8.477-18.895-18.896v-65.83h140.768z"/></g></svg>