<svg id="Capa_1" enable-background="new 0 0 512 512" height="512" viewBox="0 0 512 512" width="512" xmlns="http://www.w3.org/2000/svg"><g><path d="m502 415.241h-13.812c-3.759-20.711-13.774-40.925-29.852-60.21-14.313-17.169-33.476-33.664-56.956-49.028-39.548-25.88-77.428-39.571-79.021-40.142-2.205-.788-4.605-.777-6.785.017-6.557 2.363-148.627 54.665-165.786 149.363h-13.809c-5.523 0-10 4.478-10 10v10.269c0 32.851 26.726 59.577 59.577 59.577h266.867c32.851 0 59.577-26.727 59.577-59.577v-10.269c0-5.522-4.477-10-10-10zm-254.842-92.245c31.329-20.563 61.789-33.14 71.819-37.028 20.867 8.152 132.145 54.865 148.813 129.273h-297.586c9.1-40.173 46.118-72.006 76.954-92.245zm244.842 112.514c0 21.823-17.754 39.577-39.577 39.577h-266.867c-21.823 0-39.577-17.754-39.577-39.577v-.269h346.021z"/><path d="m319.09 239.82c57.417 0 104.13-46.843 104.13-104.42v-30.209c0-2.652-1.054-5.195-2.929-7.071-1.875-1.875-4.418-2.929-7.071-2.929h-7.248c-11.429-51.63-79.58-76.599-82.639-77.693-2.185-.782-4.577-.779-6.761.008-3.058 1.101-71.181 26.213-82.614 77.686h-223.958c-5.523 0-10 4.478-10 10 0 15.209 5.908 29.506 16.636 40.259 10.726 10.751 24.98 16.669 40.145 16.669h.046l161.539-.116c11.88 45.561 52.974 77.816 100.724 77.816zm.875-202.155c12.36 5.135 54.886 24.899 65.304 57.526h-130.609c10.417-32.623 52.936-52.387 65.305-57.526zm-263.153 104.455h-.03c-9.813 0-19.042-3.833-25.988-10.795-4.544-4.555-7.755-10.091-9.438-16.134h381.864v20.209c0 46.549-37.741 84.42-84.13 84.42-40.871 0-75.708-29.256-82.833-69.563-.844-4.777-4.996-8.259-9.847-8.259h-.007z"/><path d="m319.964 155.301c5.523 0 10-4.478 10-10v-2.133c0-5.522-4.477-10-10-10s-10 4.478-10 10v2.133c0 5.522 4.477 10 10 10z"/><path d="m270.164 155.301c5.523 0 10-4.478 10-10v-2.133c0-5.522-4.477-10-10-10s-10 4.478-10 10v2.133c0 5.522 4.477 10 10 10z"/><path d="m374.068 155.301c5.523 0 10-4.478 10-10v-2.133c0-5.522-4.477-10-10-10s-10 4.478-10 10v2.133c0 5.522 4.477 10 10 10z"/><path d="m290.772 362.024c-5.523 0-10 4.478-10 10v2.133c0 5.522 4.477 10 10 10s10-4.478 10-10v-2.133c0-5.522-4.477-10-10-10z"/><path d="m340.573 362.024c-5.523 0-10 4.478-10 10v2.133c0 5.522 4.477 10 10 10s10-4.478 10-10v-2.133c0-5.522-4.477-10-10-10z"/><path d="m310.026 320.153c-5.523 0-10 4.478-10 10v2.133c0 5.522 4.477 10 10 10s10-4.478 10-10v-2.133c0-5.522-4.477-10-10-10z"/><path d="m344.865 194.847c5.523 0 10-4.478 10-10v-2.133c0-5.522-4.477-10-10-10s-10 4.478-10 10v2.133c0 5.523 4.477 10 10 10z"/><path d="m295.064 194.847c5.523 0 10-4.478 10-10v-2.133c0-5.522-4.477-10-10-10s-10 4.478-10 10v2.133c0 5.523 4.477 10 10 10z"/></g></svg>