<svg id="Capa_1" enable-background="new 0 0 512 512" height="512" viewBox="0 0 512 512" width="512" xmlns="http://www.w3.org/2000/svg"><path d="m418.587 74.357c-.431 0-.861.004-1.29.011-13.075-20.338-35.856-32.86-60.117-32.86h-55.527c1.254-3.349 1.94-6.973 1.94-10.754 0-16.958-13.796-30.754-30.754-30.754h-56.739c-16.958 0-30.754 13.796-30.754 30.754 0 3.781.686 7.405 1.94 10.754h-55.527c-38.805 0-70.48 31.114-71.387 69.705-5.288.263-9.494 4.634-9.494 9.987 0 5.346 4.196 9.713 9.474 9.986v9.724h-12.374c-18.53 0-33.604 15.075-33.604 33.604s15.075 33.604 33.604 33.604h12.374v166.485c0 27.338 21.781 49.685 48.903 50.601-.493 1.922-.767 3.814-.767 5.648 0 4.418.887 8.633 2.492 12.476h-16.142c-24.135 0-43.771 19.636-43.771 43.771v14.901c0 5.522 4.477 10 10 10h366.806c5.523 0 10-4.478 10-10v-14.9c0-24.135-19.636-43.771-43.771-43.771h-16.142c1.605-3.843 2.492-8.057 2.492-12.476 0-1.833-.274-3.726-.767-5.648 27.121-.916 48.902-23.263 48.902-50.601v-142.787c26.376-3.286 49.241-19.476 61.115-43.89 5.259-10.813 7.925-22.431 7.925-34.53-.001-43.583-35.458-79.04-79.04-79.04zm59.039 79.039c0 5.639-.772 11.133-2.305 16.425l-46.734-22.687v-51.93c27.809 4.765 49.039 29.046 49.039 58.192zm-272.28-122.642c0-5.93 4.824-10.754 10.754-10.754h56.739c5.93 0 10.754 4.824 10.754 10.754s-4.824 10.754-10.754 10.754h-56.739c-5.93 0-10.754-4.824-10.754-10.754zm-73.587 30.754h225.421c14.395 0 28.068 6.126 37.704 16.48-17.978 5.663-33.204 17.591-43.106 33.213h-271.398c.909-27.555 23.608-49.693 51.379-49.693zm276.828 240.493h-328.235v-79.138h300.557c8.423 4.587 17.767 7.686 27.678 8.943zm-328.235-99.138v-71.663h262.368c-2.064 7.044-3.172 14.493-3.172 22.196 0 18.706 6.532 35.916 17.435 49.467zm-32.374-14.744c-7.501 0-13.604-6.103-13.604-13.604s6.103-13.604 13.604-13.604h12.374v27.209h-12.374zm80.51 242.735c0-3.229 5.403-11.361 12.477-19.302 7.075 7.942 12.477 16.072 12.477 19.302 0 6.879-5.597 12.476-12.477 12.476s-12.477-5.598-12.477-12.476zm189.502 12.475h-43.535c1.605-3.843 2.492-8.057 2.492-12.476 0-1.824-.271-3.707-.759-5.618h40.068c-.488 1.911-.759 3.794-.759 5.618 0 4.419.887 8.633 2.493 12.476zm-61.043-12.475c0 6.879-5.597 12.476-12.477 12.476s-12.477-5.597-12.477-12.476c0-3.229 5.403-11.361 12.477-19.302 7.075 7.942 12.477 16.072 12.477 19.302zm-42.462 12.475h-43.535c1.605-3.843 2.492-8.057 2.492-12.476 0-1.824-.271-3.707-.759-5.618h40.069c-.488 1.911-.759 3.794-.759 5.618 0 4.419.887 8.633 2.492 12.476zm203.388 43.771v4.9h-346.806v-4.9c0-13.107 10.664-23.771 23.771-23.771h299.264c13.107 0 23.771 10.663 23.771 23.771zm-82.376-56.246c0-3.229 5.403-11.361 12.478-19.302 7.075 7.941 12.477 16.072 12.477 19.302 0 6.879-5.597 12.476-12.477 12.476s-12.478-5.598-12.478-12.476zm42.456-25.619h-9.162c-5.358-6.934-11.137-12.663-13.945-15.319-3.856-3.646-9.888-3.646-13.743 0-2.808 2.656-8.587 8.386-13.945 15.319h-61.871c-5.358-6.934-11.137-12.663-13.945-15.319-3.855-3.646-9.888-3.646-13.743 0-2.808 2.656-8.587 8.386-13.945 15.319h-61.871c-5.358-6.934-11.137-12.663-13.945-15.319-3.855-3.646-9.888-3.646-13.743 0-2.808 2.656-8.587 8.386-13.945 15.319h-9.162c-16.892 0-30.634-13.741-30.634-30.631v-52.604h328.235v52.604c-.002 16.89-13.744 30.631-30.636 30.631zm40.634-192.799c-32.554 0-59.039-26.484-59.039-59.039 0-29.146 21.23-53.428 49.039-58.192v58.192c0 3.83 2.188 7.323 5.633 8.996l52.371 25.423c-10.973 15.392-28.606 24.62-48.004 24.62z"/></svg>