<svg id="Capa_1" enable-background="new 0 0 512 512" height="512" viewBox="0 0 512 512" width="512" xmlns="http://www.w3.org/2000/svg"><path d="m502 320.113h-33.19c2.054-4.414 3.201-9.331 3.201-14.512 0-9.576-3.92-18.253-10.24-24.512 6.32-6.258 10.24-14.936 10.24-24.512s-3.92-18.253-10.24-24.512c6.32-6.258 10.24-14.936 10.24-24.512 0-19.03-15.481-34.512-34.512-34.512h-15.863c-2.526-9.238-10.994-16.048-21.022-16.048h-28.197c1.205-3.595 1.842-7.41 1.842-11.318 0-19.595-15.941-35.536-35.536-35.536s-35.536 15.941-35.536 35.536c0 3.908.636 7.723 1.842 11.318h-15.335c1.205-3.595 1.842-7.41 1.842-11.318 0-19.595-15.941-35.536-35.536-35.536s-35.536 15.941-35.536 35.536c0 3.908.636 7.723 1.842 11.318h-15.335c1.205-3.595 1.842-7.41 1.842-11.318 0-19.595-15.941-35.536-35.536-35.536s-35.536 15.941-35.536 35.536c0 3.908.636 7.723 1.842 11.318h-28.197c-10.028 0-18.496 6.81-21.022 16.048h-15.864c-19.03 0-34.512 15.481-34.512 34.512 0 9.576 3.921 18.253 10.24 24.512-6.32 6.258-10.24 14.936-10.24 24.512s3.921 18.253 10.24 24.512c-6.32 6.258-10.24 14.936-10.24 24.512 0 5.181 1.148 10.098 3.201 14.512h-33.189c-5.522 0-10 4.478-10 10v15.494c0 31.018 25.235 56.252 56.253 56.252h399.494c31.018 0 56.253-25.234 56.253-56.252v-15.494c0-5.522-4.478-10-10-10zm-49.988-63.535c0 8.002-6.51 14.512-14.512 14.512h-15.116c.014-.415.021-.831.021-1.248v-27.775h15.095c8.002-.001 14.512 6.509 14.512 14.511zm0-49.023c0 8.002-6.51 14.512-14.512 14.512h-15.095v-29.023h15.095c8.002-.001 14.512 6.509 14.512 14.511zm-128.824-61.878c0-8.566 6.97-15.536 15.536-15.536s15.536 6.97 15.536 15.536c0 4.333-1.792 8.404-4.893 11.318h-21.288c-3.1-2.914-4.891-6.985-4.891-11.318zm-82.724 0c0-8.566 6.97-15.536 15.536-15.536s15.536 6.97 15.536 15.536c0 4.333-1.792 8.404-4.893 11.318h-21.287c-3.1-2.914-4.892-6.985-4.892-11.318zm-82.724 0c0-8.566 6.97-15.536 15.536-15.536s15.536 6.97 15.536 15.536c0 4.333-1.791 8.404-4.892 11.318h-21.288c-3.1-2.914-4.892-6.985-4.892-11.318zm-48.145 33.108c0-.987.803-1.79 1.79-1.79h289.23c.987 0 1.79.803 1.79 1.79v91.057c0 4.618-1.823 8.936-5.134 12.157-3.31 3.22-7.677 4.913-12.308 4.796-9.085-.249-16.476-8.105-16.476-17.514v-25.449c0-3.839-2.197-7.339-5.655-9.007-1.381-.666-2.866-.993-4.344-.993-2.22 0-4.421.738-6.226 2.173-3.546 2.82-7.823 4.312-12.367 4.312-6.545 0-12.675-3.224-16.397-8.624-2.485-3.604-7.026-5.174-11.205-3.872-4.181 1.301-7.028 5.17-7.028 9.548v29.475c0 4.617-1.823 8.935-5.134 12.155-3.31 3.22-7.671 4.906-12.309 4.797-9.085-.249-16.476-8.105-16.476-17.514v-22.405c0-5.522-4.478-10-10-10s-10 4.478-10 10c0 4.618-1.823 8.936-5.134 12.157-3.31 3.219-7.66 4.908-12.309 4.796-9.084-.249-16.475-8.105-16.475-17.514v-18.709c-.019-20.361-16.599-36.927-36.96-36.927-20.362 0-36.941 16.565-36.959 36.936v45.227c0 4.618-1.823 8.936-5.134 12.157-3.31 3.22-7.667 4.913-12.309 4.796-9.084-.249-16.475-8.105-16.475-17.514v-90.497zm238.937 92.305h-23.506c.158-1.399.239-2.816.239-4.247v-9.307c4.598 1.813 9.551 2.78 14.631 2.78 2.899 0 5.782-.32 8.592-.942v9.907c0 .606.015 1.209.044 1.809zm-185.02-1.248v-27.775h33.919v1.249c0 10.923 4.742 20.87 12.243 27.774h-46.183c.013-.415.021-.831.021-1.248zm.195-47.776c1.244-8.134 8.29-14.387 16.764-14.387 8.476 0 15.524 6.256 16.766 14.387zm-103.719-14.511c0-8.002 6.51-14.512 14.512-14.512h15.095v29.023h-15.095c-8.002 0-14.512-6.509-14.512-14.511zm0 49.023c0-8.002 6.51-14.512 14.512-14.512h15.095v27.215c0 .606.015 1.209.044 1.809h-15.139c-8.002 0-14.512-6.51-14.512-14.512zm0 49.024c0-8.002 6.51-14.512 14.512-14.512h22.082c6.547 9.212 17.082 15.372 28.941 15.697 10.071.272 19.591-3.437 26.803-10.454 1.672-1.627 3.169-3.382 4.483-5.243h103.892c6.577 7.529 16.055 12.409 26.576 12.697 10.044.276 19.591-3.438 26.803-10.454.743-.723 1.451-1.471 2.124-2.243h39.272c6.547 9.212 17.082 15.372 28.942 15.697.349.01.697.015 1.045.015 9.684 0 18.795-3.694 25.757-10.469 1.672-1.627 3.169-3.382 4.484-5.243h21.796c8.002 0 14.512 6.51 14.512 14.512s-6.51 14.512-14.512 14.512h-363c-8.002-.001-14.512-6.51-14.512-14.512zm432.012 40.005c0 19.989-16.263 36.252-36.253 36.252h-399.494c-19.99 0-36.253-16.263-36.253-36.252v-5.494h472z"/></svg>