<svg id="Capa_1" enable-background="new 0 0 512 512" height="512" viewBox="0 0 512 512" width="512" xmlns="http://www.w3.org/2000/svg"><g><path d="m510.294 243.377c-1.858-2.76-4.968-4.414-8.294-4.414h-187.692c-5.523 0-10 4.478-10 10v238.075c0 5.522 4.477 10 10 10h169.901c5.523 0 10-4.478 10-10v-192.264l17.058-42.053c1.25-3.082.886-6.585-.973-9.344zm-23.142 15.586-9.678 23.86h-92.411c-5.523 0-10 4.478-10 10s4.477 10 10 10h89.146v76.781h-149.901v-120.641zm-162.844 218.075v-77.434h149.901v77.434z"/><path d="m277.142 107.638c.008-2.749-1.121-5.384-3.115-7.277l-.334-.317c-.003-.003-46.536-40.88-46.536-40.88v-34.202c0-5.523-4.477-10-10-10h-177.234c-5.523 0-10 4.477-10 10v35.644l-28.186 41.36c-1.132 1.661-1.737 3.623-1.737 5.633v379.439c0 5.523 4.477 10 10 10h257.142c5.523 0 10-4.477 10-10v-379.393c0-.002 0-.004 0-.007zm-192.297-10.039-22.077-23.91h150.621l27.217 23.909h-155.761zm-34.922-62.637h157.235v18.728h-157.235zm-29.922 75.72 21.105-30.97 29.36 31.797v365.529h-50.466zm70.465 366.356v-359.439h166.676v97.37h-123.426c-5.523 0-10 4.478-10 10v173.011c0 5.522 4.477 10 10 10h123.425v69.058zm166.676-89.058h-113.426v-153.011h113.425v153.011z"/></g></svg>