<svg id="Capa_1" enable-background="new 0 0 512 512" height="512" viewBox="0 0 512 512" width="512" xmlns="http://www.w3.org/2000/svg"><g><path d="m269.203 133.459c-.442-.017-.879-.025-1.305-.025-4.343 0-8.488.862-12.274 2.425-.139-8.596-3.732-16.959-9.906-23.017-6.23-6.113-14.387-9.394-22.979-9.229-17.452.331-31.649 14.805-31.649 32.264v6.364c-.006 6.76-5.51 12.259-12.27 12.259s-12.264-5.499-12.27-12.25v-5.872c0-8.778-3.612-17.356-9.911-23.537-6.231-6.113-14.389-9.367-22.979-9.228-17.452.331-31.649 14.805-31.649 32.264v256.533c0 8.777 3.612 17.356 9.911 23.536 6.084 5.97 14.006 9.235 22.37 9.235.202 0 .406-.002.609-.006 17.452-.331 31.65-14.805 31.65-32.264v-42.308c.006-6.76 5.51-12.26 12.27-12.26s12.264 5.5 12.27 12.251v2.799c0 8.777 3.612 17.356 9.911 23.536 6.231 6.114 14.386 9.377 22.979 9.229 4.112-.078 8.042-.94 11.649-2.442v6.214c0 8.777 3.612 17.356 9.911 23.536 6.232 6.115 14.41 9.392 22.979 9.229 17.451-.331 31.649-14.805 31.649-32.264v-224.404c-.001-17.593-13.596-31.898-30.966-32.568zm10.965 256.974c0 6.639-5.396 12.142-12.028 12.268-3.174.055-6.226-1.186-8.593-3.509-2.49-2.443-3.918-5.818-3.918-9.261v-36.035c0-5.522-4.477-10-10-10s-10 4.478-10 10c0 6.639-5.396 12.142-12.028 12.268-3.164.061-6.226-1.186-8.593-3.509-2.49-2.443-3.918-5.818-3.918-9.261v-2.808c-.016-17.778-14.492-32.242-32.27-32.242-17.779 0-32.255 14.464-32.27 32.251v42.316c0 6.639-5.396 12.142-12.029 12.268-3.159.026-6.226-1.186-8.592-3.509-2.49-2.443-3.918-5.818-3.918-9.261v-256.533c0-6.639 5.396-12.142 12.029-12.268.074-.001.147-.002.22-.002 3.095 0 6.06 1.241 8.372 3.51 2.49 2.443 3.918 5.818 3.918 9.261v5.881c.015 17.777 14.491 32.241 32.27 32.241 17.778 0 32.254-14.464 32.27-32.25v-6.373c0-6.639 5.396-12.142 12.028-12.268 3.17-.046 6.226 1.186 8.592 3.509 2.49 2.443 3.918 5.818 3.918 9.261v29.325c0 5.522 4.477 10 10 10s10-4.478 10-10c0-6.766 5.504-12.27 12.27-12.27.186 0 .374.005.551.011 6.462.249 11.719 5.894 11.719 12.583z"/><path d="m328.34 49.952h-258.458c-38.533 0-69.882 31.361-69.882 69.91 0 30.58 19.914 57.354 48.395 66.541v243.021c0 20.024 16.291 36.315 36.316 36.315h228.801c20.024 0 36.315-16.291 36.315-36.315v-243.021c28.48-9.188 48.395-35.961 48.395-66.541 0-38.549-31.349-69.91-69.882-69.91zm9.579 118.902c-4.699.913-8.092 5.029-8.092 9.816v250.755c0 8.996-7.319 16.315-16.315 16.315h-228.802c-8.997 0-16.316-7.319-16.316-16.315v-250.755c0-4.787-3.393-8.903-8.092-9.816-23.352-4.54-40.302-25.144-40.302-48.992 0-27.521 22.377-49.91 49.882-49.91h258.458c27.505 0 49.882 22.39 49.882 49.91 0 23.848-16.95 44.452-40.303 48.992z"/><path d="m502 32.976c-27.467 0-50.175 16.673-65.67 48.217-11.679 23.773-18.65 55.962-18.65 86.104v67.801c0 19.509 13.49 35.927 31.631 40.417v35.771h-4.619c-5.522 0-10 4.478-10 10v119.084c0 21.314 17.34 38.654 38.654 38.654s38.654-17.339 38.654-38.654v-397.394c0-5.523-4.478-10-10-10zm-42.689 223.752c-11.928 0-21.631-9.703-21.631-21.631v-67.801c0-43.743 16.943-103.944 54.32-113.126v257.114h-22.689v-44.557c0-5.522-4.478-9.999-10-9.999zm32.689 183.642c0 10.286-8.368 18.654-18.654 18.654s-18.654-8.368-18.654-18.654v-109.086h37.308z"/></g></svg>