<svg id="Capa_1" enable-background="new 0 0 512.002 512.002" height="512" viewBox="0 0 512.002 512.002" width="512" xmlns="http://www.w3.org/2000/svg"><g><path d="m451.848 367.724h-161.114c-5.522 0-9.998 4.475-10 9.997h-254.538c-5.523 0-10 4.477-10 10 0 27.459 16.669 50.162 48.205 65.653 23.767 11.675 55.946 18.645 86.079 18.645h67.781c19.504 0 35.918-13.485 40.407-31.621h22.066v5.238c0 5.523 4.477 10 10 10h161.113c24.237 0 43.956-19.719 43.956-43.956.001-24.238-19.718-43.956-43.955-43.956zm-201.965 52.672c-5.523 0-10 4.477-10 10 0 11.922-9.699 21.621-21.622 21.621h-67.781c-43.727 0-103.904-16.939-113.089-54.297h243.343v22.676zm201.965 15.239h-151.114v-47.911h151.113c13.209 0 23.956 10.747 23.956 23.956s-10.746 23.955-23.955 23.955z"/><path d="m499.276 160.631c-8.842-9.414-21.317-14.813-34.228-14.813-7.376 0-14.73 1.758-21.269 5.085-3.561 1.812-11.68 4.074-19.472 5.941v-84.02c0-18.108-14.732-32.84-32.84-32.84h-358.627c-18.108 0-32.84 14.732-32.84 32.84v239.892c0 18.108 14.732 32.84 32.84 32.84h358.626c18.108 0 32.84-14.732 32.84-32.84v-84.148c7.679 1.772 15.415 3.908 18.605 5.616 6.798 3.64 14.415 5.537 22.161 5.537.755 0 1.511-.018 2.268-.054 23.517-1.125 43.092-20.404 44.564-43.89.824-13.117-3.661-25.599-12.628-35.146zm-94.969 152.085c0 7.08-5.76 12.84-12.84 12.84h-358.627c-7.08 0-12.84-5.76-12.84-12.84v-239.892c0-7.08 5.76-12.84 12.84-12.84h358.626c7.08 0 12.84 5.76 12.84 12.84v239.892zm87.638-118.191c0 .001 0 .001 0 0-.844 13.466-12.071 24.519-25.559 25.164-4.913.236-9.76-.85-14.033-3.137-6.565-3.515-19.36-6.636-28.046-8.484v-30.693c8.66-1.944 21.87-5.251 28.542-8.646 3.795-1.931 7.9-2.91 12.199-2.91 7.52 0 14.499 3.021 19.65 8.505 5.147 5.479 7.72 12.653 7.247 20.201z"/><path d="m286.604 123c-18.371-9.271-36.661-13.971-54.364-13.971-36.319 0-69.299 19.551-93.298 39.233-6.651-2.915-14.982-4.344-25.222-4.344h-29.776c-5.523 0-10 4.477-10 10v15.864c0 6.882 1.689 16.974 10.113 24.459-8.423 7.485-10.113 17.577-10.113 24.459v15.864c0 5.523 4.477 10 10 10h29.776c10.241 0 18.571-1.428 25.222-4.344 23.999 19.682 56.979 39.233 93.299 39.233 17.704 0 35.995-4.701 54.368-13.973 44.232-22.336 74.56-63.614 75.829-65.36 2.548-3.506 2.548-8.254 0-11.76-1.27-1.743-31.597-43.021-75.834-65.36zm-192.66 40.919h19.776c2.81 0 5.27.132 7.422.36-7.555 7.426-13.364 13.98-17.049 18.357-9.275-2.643-10.149-7.953-10.149-12.853zm19.776 60.647h-19.776v-5.864c0-4.899.874-10.21 10.149-12.853 3.685 4.377 9.494 10.932 17.049 18.357-2.152.228-4.612.36-7.422.36zm163.874 23.064c-15.55 7.847-30.809 11.826-45.354 11.826-50.808 0-96.832-47.991-111.709-65.213 14.883-17.229 60.905-65.213 111.709-65.213 14.544 0 29.804 3.979 45.353 11.826 30.471 15.387 54.358 41.712 64.019 53.395-9.635 11.671-33.451 37.943-64.018 53.379z"/><path d="m270.907 154.659c-3.905-3.905-10.237-3.905-14.143 0-21.826 21.827-21.826 57.341 0 79.167 1.953 1.953 4.512 2.929 7.071 2.929s5.119-.976 7.071-2.929c3.905-3.905 3.905-10.237 0-14.143-14.029-14.028-14.029-36.854 0-50.882 3.906-3.905 3.906-10.237.001-14.142z"/></g></svg>