<svg id="Capa_1" enable-background="new 0 0 512 512" height="512" viewBox="0 0 512 512" width="512" xmlns="http://www.w3.org/2000/svg"><g><path d="m142.44 198.867h227.12c5.522 0 10-4.477 10-10v-64.22c0-38.676-36.639-81.452-90.7-87.379.627-8.851-2.222-17.595-8.313-24.299-7.82-8.606-16.079-12.969-24.547-12.969s-16.727 4.363-24.545 12.968c-6.095 6.706-8.943 15.452-8.317 24.3-54.056 5.931-90.697 48.706-90.697 87.379v64.22c-.001 5.523 4.477 10 9.999 10zm10-74.22c0-32.134 35.715-68.075 83.512-68.075 2.846 0 5.557-1.212 7.454-3.333 1.896-2.121 2.801-4.95 2.484-7.778-.142-1.263-.508-2.47-1.133-3.714-2.697-5.341-2.109-11.358 1.499-15.328 3.707-4.08 7.259-6.419 9.744-6.419s6.037 2.339 9.744 6.419c3.607 3.97 4.195 9.987 1.485 15.352-.59 1.177-.951 2.339-1.104 3.553-.358 2.848.524 5.711 2.422 7.864 1.898 2.152 4.63 3.385 7.5 3.385 47.798 0 83.513 35.94 83.513 68.075v54.22h-207.12z"/><path d="m425.721 341.939h-42.318c-3.174-22.852-12.251-43.148-26.83-60.283 9.014-4.849 15.155-14.375 15.155-25.309 0-13.586-16.716-30.459-21.839-35.306-3.855-3.648-9.891-3.648-13.746 0-4.252 4.023-16.49 16.331-20.528 28.168-19.862-10.75-38.973-16.066-49.615-18.43v-1.955c0-5.523-4.478-10-10-10s-10 4.477-10 10v1.974c-11.104 2.484-31.455 8.175-52.041 19.75-16.722 9.403-30.449 20.864-41.008 34.119-5.247-7.911-12.115-14.765-15.085-17.575-3.855-3.648-9.891-3.648-13.746 0-5.123 4.847-21.838 21.719-21.838 35.306 0 15.699 12.66 28.496 28.304 28.714-.815 3.542-1.479 7.152-1.989 10.828h-42.318c-5.522 0-10 4.477-10 10s4.478 10 10 10h3.041c4.448 7.686 8.416 13.539 11.718 18.411 7.125 10.514 11.051 16.305 12.773 29.418l9.155 73.667c2.14 16.284 16.137 28.564 32.557 28.564h200.954c16.421 0 30.416-12.28 32.564-28.633l9.138-73.529c1.731-13.183 5.657-18.974 12.782-29.488 3.302-4.872 7.269-10.725 11.718-18.411h3.041c5.522 0 10-4.477 10-10s-4.477-10-9.999-10zm-303.441-39.481c.191-2.336 3.888-7.917 8.713-13.566 4.813 5.633 8.501 11.197 8.712 13.545-.021 4.788-3.922 8.677-8.712 8.677-4.804 0-8.711-3.91-8.713-8.656zm77.404 39.481c2.835-32.142 13.051-57.325 30.432-74.964 5.6-5.684 11.178-9.717 15.885-12.52v87.484zm66.316-87.483c4.713 2.806 10.298 6.845 15.903 12.538 17.369 17.639 27.578 42.818 30.413 74.946h-46.316zm66.38 87.483c-2.757-33.832-12.796-57.532-23.814-73.775 31.148 17.612 49.479 42.392 54.619 73.775zm10.642-99.104c4.808 5.624 8.493 11.189 8.706 13.553-.021 4.788-3.922 8.677-8.712 8.677-4.804 0-8.712-3.911-8.714-8.656.192-2.337 3.891-7.922 8.72-13.574zm-139.836 25.471c-11.375 16.773-20.903 40.44-23.571 73.633h-30.799c5.125-31.294 23.375-56.027 54.37-73.633zm191.22 100.823c-7.658 11.3-13.708 20.225-16.065 38.172l-9.138 73.529c-.836 6.367-6.307 11.169-12.726 11.169h-200.954c-6.419 0-11.891-4.802-12.718-11.1l-9.155-73.667c-.005-.039-.01-.078-.016-.117h209.382c5.522 0 10-4.477 10-10s-4.478-10-10-10h-214.764c-2.866-6.489-6.528-11.892-10.658-17.986-1.521-2.243-3.118-4.601-4.803-7.19h286.418c-1.685 2.59-3.282 4.948-4.803 7.19z"/></g></svg>