<svg id="Capa_1" enable-background="new 0 0 512 512" height="512" viewBox="0 0 512 512" width="512" xmlns="http://www.w3.org/2000/svg"><g><path d="m458.005 362.038c-6.871 0-12.461-5.552-12.461-12.375v-72.347c0-14.758-12.035-26.765-26.828-26.765h-13.026v-30.487c0-4.698-3.27-8.762-7.858-9.768-43.926-9.63-71.213-48.288-71.213-100.888v-38.905c0-38.875-31.628-70.503-70.504-70.503h-.23c-38.875 0-70.503 31.628-70.503 70.503v38.905c0 52.6-27.288 91.257-71.214 100.888-4.588 1.006-7.858 5.07-7.858 9.768v30.487h-13.026c-14.793 0-26.828 12.007-26.828 26.765v137.197c0 6.824-5.59 12.375-12.461 12.375-5.523 0-10 4.477-10 10s4.477 10 10 10c17.899 0 32.461-14.523 32.461-32.375v-137.198c0-3.73 3.063-6.765 6.828-6.765h13.026v198.033c0 23.939 19.468 43.416 43.397 43.416h212.586c23.929 0 43.397-19.477 43.397-43.416v-198.032h13.026c3.765 0 6.828 3.035 6.828 6.765v72.347c0 17.852 14.562 32.375 32.461 32.375 5.523 0 10-4.477 10-10s-4.477-10-10-10zm-252.623-291.535c0-27.848 22.656-50.503 50.503-50.503h.23c27.848 0 50.503 22.656 50.503 50.503v10.568h-101.236zm180.308 398.081c0 12.912-10.496 23.416-23.397 23.416h-212.586c-12.901 0-23.397-10.504-23.397-23.416v-240.762c48.997-14.382 79.072-59.003 79.072-118.414v-8.336h101.237v8.336c0 59.411 30.075 104.031 79.072 118.414v240.762z"/><path d="m157.209 281.491v118.363c0 30.752 25.019 55.771 55.771 55.771h86.04c30.752 0 55.771-25.019 55.771-55.771v-118.363c0-5.523-4.477-10-10-10h-177.582c-5.523 0-10 4.477-10 10zm20 10h157.582v108.363c0 19.725-16.047 35.771-35.771 35.771h-86.04c-19.724 0-35.771-16.047-35.771-35.771z"/><path d="m250.622 396.238c1.648 1.061 3.53 1.591 5.412 1.591s3.764-.53 5.412-1.591c6.658-4.285 28.831-18.949 34.625-27.764 2.659-4.048 6.138-10.49 5.647-19.654-.824-15.389-13.305-27.444-28.414-27.444-6.937 0-12.83 3.107-17.205 6.513-4.343-3.418-10.25-6.513-17.403-6.513-15.11 0-27.59 12.055-28.413 27.445-.49 9.185 2.993 15.621 5.655 19.663 5.76 8.746 28.003 23.454 34.684 27.754zm-20.368-46.349c.251-4.693 4.038-8.512 8.441-8.512 3.455 0 7.637 4.399 8.973 6.344 1.826 2.752 4.876 4.451 8.179 4.496 3.289.035 6.397-1.519 8.298-4.222 2.006-2.775 6.304-6.619 9.158-6.619 4.404 0 8.191 3.819 8.442 8.513.142 2.637-.529 4.77-2.39 7.602-1.993 3.032-12.761 11.225-23.322 18.357-10.59-7.147-21.391-15.347-23.393-18.366-1.858-2.819-2.527-4.949-2.386-7.593z"/><path d="m202.785 253.805h106.431c5.523 0 10-4.477 10-10s-4.477-10-10-10h-106.431c-5.523 0-10 4.477-10 10s4.477 10 10 10z"/></g></svg>