<svg id="Capa_1" enable-background="new 0 0 512 512" height="512" viewBox="0 0 512 512" width="512" xmlns="http://www.w3.org/2000/svg"><g><path d="m216.034 43.987 7.875-10.697c4.694-6.376 5.392-14.725 1.821-21.788-3.586-7.095-10.764-11.502-18.732-11.502h-47.084c-7.968 0-15.146 4.407-18.733 11.501-3.571 7.063-2.873 15.412 1.822 21.789l7.875 10.697c-21.015 9.524-35.66 30.624-35.66 55.064v313.899c0 24.44 14.645 45.539 35.66 55.063l-7.875 10.697c-4.694 6.377-5.392 14.726-1.821 21.789 3.587 7.094 10.765 11.501 18.733 11.501h47.084c7.968 0 15.146-4.407 18.733-11.501 3.571-7.063 2.873-15.412-1.821-21.789l-7.875-10.697c21.015-9.524 35.66-30.624 35.66-55.063v-313.9c-.002-24.44-14.647-45.539-35.662-55.063zm-56.926-22.554c-.127-.172-.319-.433-.079-.907.265-.526.683-.526.884-.526h47.084c.201 0 .619 0 .884.525.24.474.048.735-.079.907l-12.729 17.29c-1.367-.092-2.747-.139-4.138-.139h-14.961c-1.39 0-2.77.047-4.137.139zm48.695 469.134c.127.172.319.433.079.907-.266.526-.684.526-.884.526h-47.084c-.201 0-.619 0-.884-.525-.24-.474-.048-.735.079-.907l12.729-17.29c1.367.092 2.747.139 4.138.139h14.961c1.391 0 2.77-.047 4.138-.139zm23.891-77.617c0 22.313-18.284 40.466-40.758 40.466h-14.961c-22.474 0-40.758-18.153-40.758-40.466v-41.729l12.638 12.566c1.951 1.94 4.501 2.909 7.051 2.909 2.568 0 5.137-.984 7.091-2.949 3.894-3.917 3.876-10.248-.041-14.142l-26.74-26.586v-42.85l12.638 12.566c1.951 1.94 4.501 2.909 7.051 2.909 2.568 0 5.137-.984 7.091-2.949 3.894-3.917 3.876-10.248-.041-14.142l-26.74-26.586v-42.85l12.638 12.566c1.951 1.94 4.501 2.909 7.051 2.909 2.568 0 5.137-.984 7.091-2.949 3.894-3.917 3.876-10.248-.041-14.142l-26.74-26.586v-42.85l12.638 12.566c1.951 1.94 4.501 2.909 7.051 2.909 2.568 0 5.137-.984 7.091-2.949 3.894-3.917 3.876-10.248-.041-14.142l-26.74-26.586v-30.813c0-22.313 18.284-40.466 40.758-40.466h14.961c22.474 0 40.758 18.153 40.758 40.466v313.9z"/><path d="m396.783 140.142v-50.828c0-21.508-10.999-40.426-27.521-51.126l4.363-8.586c3.781-5.71 4.223-12.941 1.108-19.102-3.273-6.477-9.825-10.5-17.097-10.5h-39.237c-7.271 0-13.823 4.023-17.098 10.499-3.114 6.161-2.673 13.393 1.107 19.103l4.364 8.586c-16.521 10.7-27.52 29.618-27.52 51.126v50.828c0 17.665 7.314 33.942 19.762 45.222-12.447 11.279-19.762 27.557-19.762 45.222v50.828c0 17.665 7.314 33.943 19.762 45.222-12.447 11.279-19.762 27.557-19.762 45.222v50.828c0 21.508 10.999 40.426 27.521 51.126l-4.364 8.586c-3.78 5.71-4.222 12.943-1.107 19.103 3.274 6.476 9.826 10.499 17.098 10.499h39.237c7.272 0 13.824-4.023 17.099-10.5 3.114-6.161 2.673-13.392-1.108-19.103l-4.364-8.585c16.521-10.7 27.521-29.618 27.521-51.127v-50.828c0-17.665-7.314-33.943-19.763-45.222 12.448-11.279 19.763-27.557 19.763-45.222v-50.828c0-17.665-7.314-33.943-19.763-45.222 12.447-11.278 19.761-27.556 19.761-45.221zm-76.82-120.142h36.108l-5.268 10.365c-4.117-.942-8.396-1.44-12.785-1.44-4.39 0-8.668.497-12.786 1.44zm36.108 472h-36.108l5.269-10.365c4.117.942 8.396 1.44 12.786 1.44 4.389 0 8.668-.497 12.785-1.44zm20.712-351.858c0 15.558-8.343 29.471-21.771 36.311-3.352 1.707-5.462 5.149-5.462 8.911s2.11 7.204 5.462 8.911c13.429 6.84 21.771 20.754 21.771 36.312v50.828c0 15.558-8.343 29.472-21.771 36.312-3.352 1.707-5.462 5.149-5.462 8.911s2.11 7.204 5.462 8.911c13.429 6.84 21.771 20.753 21.771 36.311v50.828c0 22.27-17.391 40.388-38.766 40.388s-38.766-18.118-38.766-40.388v-50.828c0-15.557 8.342-29.471 21.771-36.311 3.351-1.707 5.461-5.15 5.461-8.911s-2.11-7.204-5.461-8.911c-13.43-6.84-21.771-20.754-21.771-36.312v-50.828c0-15.558 8.342-29.471 21.771-36.312 3.351-1.707 5.461-5.15 5.461-8.911s-2.11-7.204-5.461-8.911c-13.43-6.84-21.771-20.754-21.771-36.311v-50.828c0-22.27 17.391-40.388 38.766-40.388s38.766 18.118 38.766 40.388z"/></g></svg>