<svg id="Capa_1" enable-background="new 0 0 512 512" height="512" viewBox="0 0 512 512" width="512" xmlns="http://www.w3.org/2000/svg"><g><path d="m43.167 154.044 1.157 4.332c1.188 4.447 5.212 7.42 9.653 7.42.657 0 1.324-.065 1.992-.2l341.311-69.096c2.703-.547 5.061-2.187 6.514-4.531 1.454-2.344 1.875-5.185 1.164-7.85l-1.081-4.047c-7.951-38.414-45.598-63.299-84.092-55.508l-54.424 11.018c.565-3.531.518-7.219-.232-10.925-3.364-16.62-19.619-27.407-36.245-24.041l-55.609 11.258c-8.052 1.63-14.987 6.297-19.527 13.143-4.541 6.846-6.145 15.05-4.514 23.102.74 3.656 2.107 7.082 4.02 10.158l-54.408 11.014c-38.59 7.813-63.631 45.564-55.818 84.155.039.201.086.4.139.598zm138.343-101.488c-2.816.571-5.684.009-8.077-1.578-2.394-1.588-4.026-4.013-4.597-6.829-.569-2.815-.009-5.684 1.579-8.078 1.587-2.394 4.013-4.026 6.828-4.596l55.609-11.258c.718-.145 1.433-.215 2.138-.215 5.009 0 9.506 3.527 10.537 8.621 1.176 5.809-2.59 11.491-8.396 12.672l-27.816 5.631zm-78.695 36.338 110.47-22.364 27.806-5.629c.007-.001.014-.003.021-.004l82.643-16.73c3.429-.694 6.844-1.028 10.215-1.028 22.145 0 42.196 14.422 48.984 35.856l-321.131 65.01c-2.401-25.794 15.039-49.857 40.992-55.111z"/><path d="m426.588 220.91h-12.374v-9.723c5.278-.274 9.474-4.64 9.474-9.986 0-5.523-4.478-10-10-10h-367.184c-5.522 0-10 4.477-10 10 0 5.347 4.196 9.713 9.475 9.986v9.723h-12.374c-18.53 0-33.605 15.075-33.605 33.605s15.075 33.605 33.604 33.605h12.374v86.485c0 27.339 21.781 49.686 48.903 50.601-.493 1.921-.767 3.814-.767 5.648 0 4.418.887 8.632 2.492 12.475h-16.142c-24.135 0-43.771 19.636-43.771 43.771v14.9c0 5.523 4.478 10 10 10h366.806c5.522 0 10-4.477 10-10v-14.9c0-24.135-19.636-43.771-43.771-43.771h-16.142c1.605-3.843 2.492-8.057 2.492-12.475 0-1.833-.274-3.726-.767-5.648 27.121-.916 48.903-23.263 48.903-50.601v-86.485h12.374c18.529 0 33.604-15.075 33.604-33.605s-15.075-33.605-33.604-33.605zm-360.609 57.954h328.235v61.137h-328.235zm328.235-67.664v47.664h-328.235v-47.664zm-374.214 43.315c0-7.502 6.103-13.605 13.604-13.605h12.374v27.209h-12.373c-7.502 0-13.605-6.103-13.605-13.604zm94.114 176.339c0-3.229 5.4-11.357 12.472-19.297 7.011 7.896 12.482 16.118 12.482 19.297 0 6.879-5.598 12.475-12.478 12.475-6.879 0-12.476-5.596-12.476-12.475zm189.502 12.475h-43.535c1.605-3.843 2.492-8.057 2.492-12.475 0-1.824-.271-3.707-.759-5.618h40.069c-.488 1.911-.759 3.794-.759 5.618 0 4.418.887 8.632 2.492 12.475zm-61.043-12.475c0 6.879-5.598 12.475-12.478 12.475s-12.477-5.596-12.477-12.475c0-3.229 5.4-11.357 12.472-19.297 7.012 7.896 12.483 16.118 12.483 19.297zm-42.461 12.475h-43.535c1.605-3.843 2.492-8.057 2.492-12.475 0-1.824-.271-3.707-.759-5.618h40.069c-.488 1.911-.759 3.794-.759 5.618-.001 4.418.887 8.632 2.492 12.475zm203.387 43.771v4.9h-346.806v-4.9c0-13.107 10.663-23.771 23.771-23.771h299.264c13.107 0 23.771 10.663 23.771 23.771zm-82.375-56.246c0-3.229 5.4-11.357 12.472-19.297 7.011 7.896 12.482 16.118 12.482 19.297 0 6.879-5.598 12.475-12.478 12.475s-12.476-5.596-12.476-12.475zm42.455-25.618h-9.162c-5.358-6.934-11.137-12.663-13.946-15.319-3.855-3.646-9.888-3.646-13.743 0-2.808 2.656-8.586 8.386-13.944 15.319h-61.872c-5.358-6.934-11.137-12.663-13.946-15.319-3.855-3.646-9.888-3.646-13.743 0-2.808 2.656-8.586 8.386-13.944 15.319h-61.872c-5.358-6.934-11.137-12.663-13.946-15.319-3.855-3.646-9.888-3.646-13.743 0-2.808 2.656-8.586 8.386-13.944 15.319h-9.162c-16.892 0-30.634-13.741-30.634-30.631v-14.604h328.235v14.604c.001 16.889-13.742 30.631-30.634 30.631zm63.009-137.117h-12.374v-27.209h12.374c7.502 0 13.604 6.103 13.604 13.605 0 7.501-6.102 13.604-13.604 13.604z"/><path d="m470.792 96.596c-1.799 0-3.584.115-5.35.345-5.711-8.009-15.022-12.981-25.262-12.981-15.32 0-28.083 11.156-30.589 25.769h-7.4c-5.522 0-10 4.477-10 10s4.478 10 10 10h17.686c3.115 0 6.053-1.452 7.945-3.927s2.521-5.69 1.704-8.697c-.38-1.397-.38-1.494-.38-2.118 0-6.08 4.95-11.027 11.034-11.027 4.789 0 9.006 3.055 10.492 7.602.842 2.573 2.69 4.695 5.124 5.881 2.436 1.186 5.246 1.334 7.789.411 2.303-.834 4.728-1.258 7.206-1.258 11.694 0 21.208 9.514 21.208 21.208s-9.514 21.208-21.208 21.208c-1.5 0-3.014-.162-4.501-.479-4.279-.917-8.657 1.057-10.806 4.871-2.175 3.861-6.276 6.26-10.703 6.26-6.767 0-12.271-5.502-12.271-12.265 0-.871.089-1.889.226-2.594.571-2.932-.199-5.965-2.099-8.27s-4.729-3.64-7.717-3.64h-70.278c-5.522 0-10 4.477-10 10s4.478 10 10 10h60.337c2.616 15.182 15.882 26.769 31.803 26.769 9.246 0 17.95-3.978 24.002-10.701.67.033 1.339.049 2.008.049 22.722 0 41.208-18.486 41.208-41.208s-18.486-41.208-41.208-41.208z"/></g></svg>