<svg id="Capa_1" enable-background="new 0 0 512.014 512.014" height="512" viewBox="0 0 512.014 512.014" width="512" xmlns="http://www.w3.org/2000/svg"><g><path d="m452.827 30.369c-22.457-22.457-54.412-33.04-89.97-29.795-33.833 3.085-67.287 18.905-91.784 43.402-8.38 8.379-16.16 17.792-23.123 27.98-1.873 2.74-2.264 6.23-1.044 9.317s3.891 5.367 7.131 6.087l40.499 8.999 9.997 44.993c.842 3.791 3.803 6.751 7.593 7.593l44.992 9.997 9.996 44.992c.842 3.791 3.803 6.751 7.593 7.593l47.54 10.562c.72.16 1.446.238 2.169.238 2.417 0 4.78-.877 6.628-2.512 2.808-2.485 5.559-5.072 8.176-7.69 24.498-24.498 40.317-57.952 43.402-91.785 3.243-35.562-7.338-67.513-29.795-89.971zm9.878 88.154c-2.668 29.252-16.383 58.214-37.628 79.46-1.161 1.161-2.352 2.315-3.563 3.455l-36.257-8.055-9.996-44.992c-.842-3.791-3.802-6.751-7.593-7.593l-44.992-9.996-9.997-44.992c-.842-3.791-3.802-6.75-7.593-7.593l-31.639-7.03c3.746-4.612 7.679-8.98 11.767-13.067 21.245-21.245 50.206-34.959 79.459-37.627 29.538-2.69 55.827 5.836 74.011 24.02 18.184 18.182 26.715 44.467 24.021 74.01z"/><path d="m162.636 159.535 9.996-44.992 44.992-9.996c3.791-.842 6.75-3.803 7.593-7.593l10.38-46.711c.887-3.99-.744-8.119-4.119-10.425-66.666-45.569-157.91-50.491-185.845-22.556-14.893 14.892-20.427 49.121-14.444 89.328 3.814 25.627 15.697 74.816 52.43 116.32 1.924 2.174 4.664 3.373 7.489 3.373.833 0 1.673-.104 2.502-.319 3.64-.94 6.444-3.843 7.26-7.513l9.182-41.327 44.992-9.997c3.789-.841 6.75-3.802 7.592-7.592zm-18.144-10.551-44.992 9.996c-3.791.842-6.751 3.803-7.593 7.593l-5.973 26.885c-17.656-25.515-30.118-57.25-34.963-89.812-5.646-37.94.605-64.044 8.804-72.242 6.168-6.167 21.975-11.387 45.154-11.387 5.561 0 11.547.301 17.925.96 31.895 3.3 64.938 14.751 91.723 31.662l-7.502 33.764-44.994 9.997c-3.791.842-6.751 3.802-7.593 7.593z"/><path d="m352.993 228.276c-8.509-.401-16.438 1.766-23.151 5.801v-5.711c0-11.206-4.614-22.161-12.659-30.055-7.939-7.79-18.314-11.956-29.253-11.759-22.237.422-40.329 18.865-40.329 41.114v8.897c-.01 11.636-9.485 21.102-21.122 21.102-11.636 0-21.111-9.466-21.121-21.094v-8.206c0-11.206-4.614-22.161-12.659-30.055-7.94-7.79-18.334-11.978-29.253-11.759-22.238.422-40.33 18.865-40.33 41.114v151.454c0 73.278 59.617 132.895 132.895 132.895s132.895-59.616 132.895-132.895v-112.556c-.001-20.519-15.779-37.337-35.913-38.287zm15.912 150.843c0 62.25-50.645 112.895-112.895 112.895-62.251 0-112.895-50.644-112.895-112.895v-151.454c0-11.428 9.29-20.901 20.709-21.118.128-.002.256-.003.385-.003 5.372 0 10.501 2.137 14.482 6.042 4.237 4.157 6.667 9.908 6.667 15.779v8.214c.02 22.655 18.466 41.085 41.121 41.085s41.102-18.431 41.122-41.094v-8.906c0-11.428 9.29-20.901 20.708-21.118 5.534-.117 10.79 2.04 14.866 6.039 4.237 4.157 6.667 9.908 6.667 15.779v40.983c0 5.523 4.478 10 10 10s10-4.477 10-10c0-11.646 9.476-21.121 21.122-21.121.354 0 .714.008 1.08.026 9.298.438 16.861 8.652 16.861 18.31z"/><path d="m256.01 293.595c-47.597 0-86.319 38.686-86.319 86.237s38.723 86.237 86.319 86.237 86.319-38.686 86.319-86.237-38.722-86.237-86.319-86.237zm0 152.474c-36.568 0-66.319-29.714-66.319-66.237s29.751-66.237 66.319-66.237 66.319 29.714 66.319 66.237-29.75 66.237-66.319 66.237z"/></g></svg>