<svg id="Capa_1" enable-background="new 0 0 512 512" height="512" viewBox="0 0 512 512" width="512" xmlns="http://www.w3.org/2000/svg"><g><path d="m467.359 0h-422.718c-5.523 0-10 4.477-10 10v7.491c0 31.912 25.962 57.874 57.874 57.874h122.419v25.676h-93.329c-36.165 0-65.586 29.422-65.586 65.586v288.034c0 5.523 4.477 10 10 10h22.96c-1.868 4.179-2.908 8.805-2.908 13.669 0 18.565 15.137 33.669 33.743 33.669s33.743-15.104 33.743-33.669c0-4.864-1.039-9.49-2.908-13.669h210.7c-1.868 4.179-2.908 8.805-2.908 13.669 0 18.565 15.137 33.669 33.743 33.669s33.743-15.104 33.743-33.669c0-4.864-1.04-9.49-2.908-13.669h22.96c5.523 0 10-4.477 10-10v-288.034c0-36.165-29.422-65.586-65.586-65.586h-93.329v-25.676h122.419c31.912 0 57.874-25.962 57.874-57.874v-7.491c.002-5.523-4.475-10-9.998-10zm-333.801 478.331c0 7.538-6.165 13.669-13.743 13.669s-13.743-6.132-13.743-13.669 6.165-13.669 13.743-13.669 13.743 6.131 13.743 13.669zm272.37 0c0 7.538-6.165 13.669-13.743 13.669s-13.743-6.132-13.743-13.669 6.165-13.669 13.743-13.669 13.743 6.131 13.743 13.669zm30.053-311.704v278.034h-359.962v-278.034c0-25.136 20.45-45.586 45.586-45.586h268.789c25.137 0 45.587 20.45 45.587 45.586zm-158.915-65.586h-42.132v-25.676h42.132zm142.419-45.676h-326.97c-20.042 0-36.497-15.646-37.792-35.365h402.554c-1.296 19.719-17.751 35.365-37.792 35.365z"/><path d="m125.05 282.665c0 71.999 58.744 130.574 130.95 130.574s130.95-58.575 130.95-130.574-58.744-130.575-130.95-130.575-130.95 58.576-130.95 130.575zm241.9 0c0 60.971-49.772 110.574-110.95 110.574s-110.95-49.604-110.95-110.574 49.772-110.575 110.95-110.575 110.95 49.604 110.95 110.575z"/><path d="m246 198.059v.826c0 5.523 4.477 10 10 10s10-4.477 10-10v-.826c0-5.523-4.477-10-10-10s-10 4.477-10 10z"/><path d="m256 356.264c-5.523 0-10 4.477-10 10v.826c0 5.523 4.477 10 10 10s10-4.477 10-10v-.826c0-5.523-4.477-10-10-10z"/><path d="m339.689 292.574h.826c5.523 0 10-4.477 10-10s-4.477-10-10-10h-.826c-5.523 0-10 4.477-10 10s4.478 10 10 10z"/><path d="m172.311 272.574h-.826c-5.523 0-10 4.477-10 10s4.477 10 10 10h.826c5.523 0 10-4.477 10-10s-4.478-10-10-10z"/><path d="m315.178 233.397c2.559 0 5.119-.976 7.071-2.929l.584-.584c3.905-3.905 3.905-10.237 0-14.143-3.905-3.905-10.237-3.905-14.143 0l-.584.584c-3.905 3.905-3.905 10.237 0 14.143 1.953 1.953 4.513 2.929 7.072 2.929z"/><path d="m189.751 334.681-.584.584c-3.905 3.905-3.905 10.237 0 14.143 1.953 1.953 4.512 2.929 7.071 2.929s5.119-.976 7.071-2.929l.584-.584c3.905-3.905 3.905-10.237 0-14.143s-10.237-3.906-14.142 0z"/><path d="m308.69 349.407c1.953 1.953 4.512 2.929 7.071 2.929s5.119-.976 7.071-2.929c3.905-3.905 3.905-10.237 0-14.143l-.584-.584c-3.905-3.905-10.237-3.905-14.143 0-3.905 3.905-3.905 10.237 0 14.143z"/><path d="m203.31 215.742c-3.905-3.905-10.237-3.905-14.143 0-3.905 3.905-3.905 10.237 0 14.143l.584.584c1.953 1.953 4.512 2.929 7.071 2.929s5.119-.976 7.071-2.929c3.905-3.905 3.905-10.237 0-14.143z"/><path d="m266 239.787c0-5.523-4.477-10-10-10s-10 4.477-10 10v19.159c-9.264 3.906-15.782 13.067-15.782 23.718 0 14.189 11.565 25.733 25.782 25.733s25.782-11.544 25.782-25.733c0-10.652-6.518-19.812-15.782-23.718zm-10 48.61c-3.188 0-5.782-2.572-5.782-5.733s2.594-5.733 5.782-5.733 5.782 2.572 5.782 5.733-2.594 5.733-5.782 5.733z"/></g></svg>