<svg id="Capa_1" enable-background="new 0 0 512 512" height="512" viewBox="0 0 512 512" width="512" xmlns="http://www.w3.org/2000/svg"><g><path d="m512 292.615c0-5.523-4.478-10-10-10h-151.058c.094-2.358.143-4.727.143-7.108 0-96.794-78.748-175.542-175.542-175.542s-175.543 78.747-175.543 175.542 78.748 175.543 175.542 175.543c21.197 0 41.528-3.776 60.356-10.692 9.795 8.556 22.438 13.361 35.574 13.361h186.479c29.803 0 54.049-24.247 54.049-54.049v-6.319c0-5.523-4.478-10-10-10h-2.102c7.564-9.3 12.102-21.153 12.102-34.047v-6.321c0-5.523-4.478-10-10-10h-2.102c7.564-9.3 12.102-21.153 12.102-34.046zm-492-17.108c0-85.767 69.776-155.542 155.542-155.542s155.542 69.776 155.542 155.542-69.775 155.543-155.542 155.543c-85.766 0-155.542-69.777-155.542-155.543zm437.951 158.212h-186.478c-4.864 0-9.621-1.047-13.971-3.004 13.958-7.4 26.804-16.629 38.217-27.364h196.083c-1.84 17.05-16.32 30.368-33.851 30.368zm-143.988-50.368c7.344-9.405 13.752-19.575 19.083-30.368h158.758c-1.841 17.049-16.321 30.368-33.854 30.368zm27.459-50.369c3.392-9.762 5.945-19.914 7.572-30.368h142.808c-1.841 17.049-16.321 30.368-33.854 30.368z"/><path d="m175.542 150.518c-68.919 0-124.989 56.07-124.989 124.989s56.07 124.99 124.989 124.99 124.99-56.07 124.99-124.99-56.07-124.989-124.99-124.989zm0 229.979c-57.891 0-104.989-47.098-104.989-104.99 0-57.891 47.098-104.989 104.989-104.989 57.892 0 104.99 47.098 104.99 104.989s-47.098 104.99-104.99 104.99z"/><path d="m312.391 130.667 34.417 12.646 12.646 34.417c1.446 3.936 5.194 6.551 9.387 6.551s7.94-2.616 9.387-6.551l12.646-34.417 34.417-12.646c3.936-1.446 6.551-5.193 6.551-9.386s-2.615-7.94-6.551-9.386l-34.417-12.646-12.646-34.417c-1.446-3.936-5.194-6.551-9.387-6.551s-7.94 2.616-9.387 6.551l-12.646 34.417-34.417 12.646c-3.936 1.446-6.551 5.193-6.551 9.386s2.615 7.941 6.551 9.386zm45.657-14.241c2.754-1.012 4.925-3.183 5.938-5.938l4.854-13.212 4.854 13.212c1.013 2.755 3.184 4.926 5.938 5.938l13.213 4.855-13.213 4.855c-2.754 1.012-4.925 3.183-5.938 5.938l-4.854 13.212-4.854-13.212c-1.013-2.755-3.184-4.926-5.938-5.938l-13.213-4.855z"/><path d="m421.84 163.466c-4.192 0-7.94 2.616-9.387 6.551l-9.483 25.811-25.811 9.484c-3.936 1.446-6.551 5.193-6.551 9.386s2.615 7.94 6.551 9.386l25.811 9.484 9.483 25.81c1.446 3.936 5.194 6.551 9.387 6.551s7.94-2.616 9.387-6.551l9.483-25.81 25.811-9.484c3.936-1.446 6.551-5.193 6.551-9.386s-2.615-7.94-6.551-9.386l-25.811-9.484-9.483-25.811c-1.447-3.935-5.195-6.551-9.387-6.551zm7.63 52.925c-2.754 1.012-4.925 3.183-5.938 5.938l-1.692 4.606-1.692-4.606c-1.013-2.755-3.184-4.926-5.938-5.938l-4.607-1.693 4.607-1.693c2.754-1.012 4.925-3.183 5.938-5.938l1.692-4.606 1.692 4.606c1.013 2.755 3.184 4.926 5.938 5.938l4.607 1.693z"/></g></svg>