<svg id="Capa_1" enable-background="new 0 0 512 512" height="512" viewBox="0 0 512 512" width="512" xmlns="http://www.w3.org/2000/svg"><g><path d="m476.34 220.34h-11.837c-16.998-99.707-104.026-175.851-208.503-175.851s-191.505 76.144-208.504 175.851h-11.836c-19.663 0-35.66 15.997-35.66 35.66s15.997 35.66 35.66 35.66h11.837c16.998 99.707 104.026 175.851 208.503 175.851s191.505-76.143 208.504-175.851h11.837c19.663 0 35.66-15.997 35.66-35.66s-15.998-35.66-35.661-35.66zm-228.325 227.005c-29.291-1.207-56.905-9.024-81.387-21.997l37.924-37.924c1.68.077 3.37.116 5.069.116 23.882 0 46.613-7.556 65.735-21.852 16.477-12.318 29.35-29.288 36.797-48.341h23.107c50.454 0 91.501-41.047 91.501-91.501 0-17.332-4.844-33.554-13.249-47.383l11.836-11.836c12.972 24.482 20.789 52.096 21.997 81.387zm-183.36-183.36 36.227-36.227c-.821 5.406-1.246 10.941-1.246 16.573v33.225c0 16.077 3.468 31.359 9.694 45.139l-22.678 22.678c-12.973-24.483-20.79-52.097-21.997-81.388zm54.98 13.57v-33.225c0-49.618 40.367-89.985 89.985-89.985h125.64c39.426 0 71.501 32.076 71.501 71.502s-32.075 71.501-71.501 71.501h-30.186c-4.373 0-8.239 2.841-9.544 7.015-11.819 37.789-46.343 63.178-85.91 63.178-49.618 0-89.985-40.368-89.985-89.986zm144.35-212.9c29.291 1.207 56.905 9.024 81.387 21.997l-47.694 47.694h-88.058c-5.632 0-11.166.426-16.572 1.246zm150.747 84.304-13.522 13.522c-16.66-17.333-40.067-28.136-65.95-28.136h-9.297l37.078-37.078c20.35 13.768 37.924 31.342 51.691 51.692zm-180.046-83.291-89.778 89.778c-9.253 6.755-17.416 14.918-24.171 24.171l-55.068 55.068c9.855-88.606 80.41-159.161 169.017-169.017zm-199.026 205.992c-8.635 0-15.66-7.025-15.66-15.66s7.025-15.66 15.66-15.66h9.403c-.38 5.171-.574 10.393-.574 15.66s.194 10.489.574 15.66zm61.608 91.381 22.343-22.343c14.452 20.541 35.749 35.934 60.547 42.837l-31.199 31.199c-20.35-13.769-37.924-31.343-51.691-51.693zm180.046 83.291 169.018-169.018c-9.856 88.607-80.411 159.162-169.018 169.018zm199.026-174.672h-9.403c.38-5.171.574-10.393.574-15.66s-.194-10.489-.574-15.66h9.403c8.635 0 15.66 7.025 15.66 15.66s-7.025 15.66-15.66 15.66z"/><path d="m203.396 332.571c26.136 0 47.4-21.263 47.4-47.399s-21.264-47.4-47.4-47.4-47.399 21.264-47.399 47.4 21.263 47.399 47.399 47.399zm0-74.8c15.108 0 27.4 12.292 27.4 27.4s-12.292 27.399-27.4 27.399-27.399-12.292-27.399-27.399c0-15.108 12.291-27.4 27.399-27.4z"/></g></svg>