<svg id="Capa_1" enable-background="new 0 0 512 512" height="512" viewBox="0 0 512 512" width="512" xmlns="http://www.w3.org/2000/svg"><path d="m502 459.726h-13.898v-135.741c0-17.404-14.146-31.563-31.533-31.563h-3.418v-90.151c0-17.395-14.152-31.547-31.548-31.547h-91.344c5.256-18.312 2.54-35.265-8.138-50.55-10.651-15.248-27.291-25.781-39.44-33.472-4.981-3.153-9.283-5.876-11.816-8.04-16.118-13.77-10.639-32.609-10.422-33.328 1.295-4.029-.086-8.438-3.45-11.007-3.364-2.57-7.981-2.743-11.528-.432-1.828 1.19-44.731 29.583-42.106 66.836.099 1.402.263 2.756.488 4.066-5.532 8.18-9.647 21.391-9.173 34.198-10.249 6.184-15.458 15.41-15.506 27.504-.005 1.417.075 2.828.24 4.225h-89.01c-17.396 0-31.548 14.152-31.548 31.547v90.151h-3.418c-17.388 0-31.533 14.159-31.533 31.563v135.741h-13.899c-5.523 0-10 4.477-10 10s4.477 10 10 10h492c5.523 0 10-4.477 10-10s-4.477-10-10-10zm-261.661-395.514c1.802 9.505 6.573 20.292 17.534 29.656 3.62 3.092 8.481 6.169 14.109 9.732 27.265 17.259 48.944 34.251 37.916 65.132-7.208-11.161-19.967-24.884-42.414-36.618-4.521-2.364-9.246-4.488-13.814-6.543-18.257-8.21-29.491-13.87-30.363-26.247-.9-12.795 7.839-25.59 17.032-35.112zm-41.172 102.364c.015-3.796.563-7.481 6.331-10.75 2.177.034 4.407-.688 6.223-2.095 3.089-2.394 4.5-6.368 3.613-10.175-1.258-5.395-.714-11.622.652-17.014 8.385 7.783 19.598 12.826 29.482 17.271 4.501 2.024 8.752 3.936 12.75 6.026 12.923 6.756 21.861 14.092 28.037 20.885h-86.515c-.384-1.342-.578-2.737-.573-4.148zm-120.317 35.695c0-6.367 5.18-11.547 11.548-11.547h331.204c6.368 0 11.548 5.18 11.548 11.547v90.151h-354.3zm.589 245.242c0-6.734 5.479-12.213 12.213-12.213s12.213 5.479 12.213 12.213-5.479 12.213-12.213 12.213-12.213-5.478-12.213-12.213zm82.174 0c0-6.734 5.479-12.213 12.212-12.213 6.734 0 12.213 5.479 12.213 12.213s-5.479 12.213-12.213 12.213c-6.733 0-12.212-5.478-12.212-12.213zm82.174 0c0-6.734 5.479-12.213 12.213-12.213s12.213 5.479 12.213 12.213-5.479 12.213-12.213 12.213-12.213-5.478-12.213-12.213zm82.174 0c0-6.734 5.479-12.213 12.213-12.213s12.212 5.479 12.212 12.213-5.479 12.213-12.212 12.213c-6.734 0-12.213-5.478-12.213-12.213zm82.174 0c0-6.734 5.479-12.213 12.213-12.213s12.213 5.479 12.213 12.213-5.479 12.213-12.213 12.213-12.213-5.478-12.213-12.213zm42.021 12.213c1.55-3.768 2.405-7.893 2.405-12.213 0-17.762-14.451-32.213-32.213-32.213s-32.213 14.451-32.213 32.213c0 4.32.855 8.445 2.405 12.213h-22.558c1.549-3.768 2.405-7.893 2.405-12.213 0-17.762-14.45-32.213-32.212-32.213s-32.213 14.451-32.213 32.213c0 4.32.855 8.445 2.405 12.213h-22.558c1.55-3.768 2.405-7.893 2.405-12.213 0-17.762-14.451-32.213-32.213-32.213s-32.213 14.451-32.213 32.213c0 4.32.855 8.445 2.405 12.213h-22.558c1.55-3.768 2.405-7.893 2.405-12.213 0-17.762-14.451-32.213-32.213-32.213s-32.212 14.451-32.212 32.213c0 4.32.855 8.445 2.405 12.213h-22.56c1.55-3.768 2.405-7.893 2.405-12.213 0-17.762-14.451-32.213-32.213-32.213s-32.213 14.451-32.213 32.213c0 4.32.855 8.445 2.405 12.213h-17.946v-135.741c0-6.375 5.174-11.563 11.533-11.563h401.137c6.359 0 11.533 5.187 11.533 11.563v135.741z"/></svg>