<svg id="Capa_1" enable-background="new 0 0 512 512" height="512" viewBox="0 0 512 512" width="512" xmlns="http://www.w3.org/2000/svg"><g><path d="m435.36 310.929h-365.767c-5.522 0-10 4.477-10 10v72.838c0 40.887 20.862 76.993 52.501 98.233h-37.877c-5.522 0-10 4.477-10 10s4.478 10 10 10h356.519c5.522 0 10-4.477 10-10s-4.478-10-10-10h-37.877c31.638-21.24 52.501-57.346 52.501-98.233v-72.838c0-5.523-4.478-10-10-10zm-10 82.838c0 54.166-44.066 98.233-98.232 98.233h-149.302c-54.166 0-98.232-44.067-98.232-98.233v-62.838h345.766z"/><path d="m218.772 296.47c24.688-.001 52.255-12.435 76.13-36.31 37.053-37.054 46.549-82.995 24.778-113.276l17.106-17.106 7.796 7.796c1.953 1.953 4.512 2.929 7.071 2.929s5.118-.976 7.071-2.929l84.609-84.609c12.097-12.097 12.097-31.78 0-43.878-5.859-5.86-13.65-9.087-21.937-9.087-8.288 0-16.079 3.227-21.939 9.087l-84.609 84.61c-1.875 1.875-2.929 4.419-2.929 7.071s1.054 5.196 2.929 7.071l7.796 7.796-17.118 17.117c-13.533-9.677-30.658-13.428-49.219-10.606-22.122 3.364-44.269 15.596-64.046 35.373-40.326 40.326-48.013 91.179-18.276 120.917 12.132 12.131 27.775 18.035 44.787 18.034zm194.827-273.241c4.299-4.299 11.294-4.298 15.593 0 4.299 4.299 4.299 11.294 0 15.593l-77.538 77.539-15.593-15.593zm-114.612 130.206c1.589 4.636-5.867 28.688-43.995 66.816-38.129 38.13-62.188 45.576-66.815 43.994-1.589-4.636 5.866-28.689 43.994-66.816 38.123-38.124 62.169-45.584 66.816-43.994zm-18.228 92.583c-21.046 21.045-45.019 31.602-65.109 30.331.054-.029.108-.057.162-.086 15.93-8.438 34.368-22.917 53.321-41.87 18.953-18.954 33.432-37.392 41.87-53.321.029-.055.058-.109.086-.164 1.274 20.091-9.284 44.064-30.33 65.11zm-74.355-74.356c16.5-16.5 35.29-27.063 52.91-29.742 2.969-.452 5.876-.675 8.707-.675 1.197 0 2.38.041 3.549.12-17.335 9.127-36.584 24.964-53.542 41.922-16.974 16.974-32.827 36.244-41.949 53.592-1.317-20.113 9.241-44.134 30.325-65.217z"/></g></svg>