<svg id="Capa_1" enable-background="new 0 0 512 512" height="512" viewBox="0 0 512 512" width="512" xmlns="http://www.w3.org/2000/svg"><g><path d="m226.286 300.813c0-40.61-33.038-73.648-73.647-73.648-40.61 0-73.648 33.038-73.648 73.648s33.038 73.648 73.648 73.648c40.609 0 73.647-33.038 73.647-73.648zm-73.647 53.648c-29.582 0-53.648-24.066-53.648-53.648s24.066-53.648 53.648-53.648c29.581 0 53.647 24.066 53.647 53.648s-24.066 53.648-53.647 53.648z"/><path d="m502 390.24h-254.046c22.502-23.998 35.387-55.88 35.387-89.427 0-35.305-14.071-67.385-36.899-90.928 7.919-2.431 15.094-7.197 20.407-13.884l20.078 9.182-2.18 4.768c-2.296 5.022-.087 10.956 4.936 13.253l146.563 67.023c5.909 2.702 12.11 3.98 18.219 3.98 16.684 0 32.669-9.542 40.049-25.68 4.885-10.68 5.317-22.623 1.219-33.628-4.099-11.005-12.237-19.756-22.917-24.64l-146.563-67.023c-2.413-1.103-5.163-1.203-7.649-.277-2.485.925-4.501 2.8-5.604 5.212l-231.555-105.888c-2.413-1.103-5.163-1.202-7.649-.277-2.485.925-4.501 2.8-5.604 5.212-11.422 24.979-5.704 52.564 16.538 79.774 13.221 16.174 32.42 31.862 53.391 43.92-65.263 7.245-116.184 62.738-116.184 129.901 0 33.547 12.885 65.429 35.387 89.427h-47.324c-5.522 0-10 4.477-10 10v36.036c0 18.939 15.408 34.348 34.348 34.348h443.305c18.939 0 34.348-15.408 34.348-34.348v-36.036c-.001-5.523-4.479-10-10.001-10zm-37.505-161.792c5.822 2.662 10.259 7.432 12.493 13.431 2.233 5.999 1.998 12.509-.664 18.331-5.496 12.018-19.747 17.324-31.762 11.829l-137.469-62.865 19.934-43.59zm-381.187-163.321 221.372 101.233-9.436 20.634-28.067-12.836c-5.022-2.297-10.956-.087-13.253 4.935-4.961 10.848-17.82 15.637-28.668 10.676l-61.659-28.197c-39.782-18.191-87.484-58.636-80.289-96.445zm-41.371 235.686c0-61.042 49.661-110.702 110.702-110.702s110.702 49.661 110.702 110.702c0 35.385-16.927 68.585-45.438 89.427h-130.53c-28.509-20.842-45.436-54.043-45.436-89.427zm450.063 135.462c0 7.911-6.437 14.348-14.348 14.348h-443.304c-7.911 0-14.348-6.437-14.348-14.348v-26.035h472z"/></g></svg>