<svg id="Capa_1" enable-background="new 0 0 512 512" height="512" viewBox="0 0 512 512" width="512" xmlns="http://www.w3.org/2000/svg"><path d="m452.492 140.91h-12.375v-9.724c5.279-.273 9.475-4.64 9.475-9.986 0-5.354-4.207-9.724-9.495-9.987-.908-38.591-32.582-69.704-71.386-69.704h-55.527c1.254-3.349 1.941-6.973 1.941-10.754-.001-16.959-13.798-30.755-30.755-30.755h-56.74c-16.958 0-30.754 13.796-30.754 30.754 0 3.781.686 7.405 1.941 10.754h-55.527c-38.805 0-70.479 31.113-71.386 69.704-5.288.263-9.495 4.634-9.495 9.987 0 5.347 4.196 9.713 9.475 9.986v9.724h-12.376c-18.53 0-33.604 15.075-33.604 33.604s15.075 33.605 33.604 33.605h12.375v166.485c0 27.338 21.781 49.685 48.902 50.601-.493 1.921-.767 3.814-.767 5.648 0 4.418.887 8.632 2.492 12.475h-16.142c-24.135 0-43.771 19.636-43.771 43.771v14.902c0 5.523 4.477 10 10 10h366.806c5.523 0 10-4.477 10-10v-14.9c0-24.135-19.636-43.771-43.771-43.771h-16.142c1.605-3.843 2.492-8.057 2.492-12.475 0-1.833-.274-3.726-.767-5.648 27.121-.916 48.902-23.263 48.902-50.601v-166.486h12.375c18.53 0 33.604-15.075 33.604-33.605s-15.075-33.604-33.604-33.604zm-360.609-9.71h328.234v67.664h-328.234zm0 87.664h328.234v81.137h-328.234zm124.993-188.11c0-5.93 4.824-10.754 10.754-10.754h56.739c5.93 0 10.754 4.824 10.754 10.754s-4.824 10.754-10.754 10.754h-56.739c-5.929 0-10.754-4.824-10.754-10.754zm-73.586 30.754h225.42c27.771 0 50.47 22.137 51.378 49.691h-328.177c.908-27.553 23.607-49.691 51.379-49.691zm-83.782 126.611c-7.501 0-13.604-6.103-13.604-13.605 0-7.501 6.103-13.604 13.604-13.604h12.375v27.209zm80.51 242.735c0-3.229 5.403-11.361 12.477-19.302 7.075 7.942 12.477 16.073 12.477 19.302 0 6.879-5.597 12.475-12.477 12.475s-12.477-5.597-12.477-12.475zm189.502 12.475h-43.535c1.605-3.843 2.492-8.057 2.492-12.475 0-1.824-.271-3.707-.759-5.618h40.069c-.488 1.911-.759 3.794-.759 5.618 0 4.417.887 8.632 2.492 12.475zm-61.043-12.475c0 6.879-5.597 12.475-12.477 12.475s-12.477-5.596-12.477-12.475c0-3.229 5.403-11.361 12.477-19.302 7.075 7.942 12.477 16.072 12.477 19.302zm-42.462 12.475h-43.535c1.605-3.843 2.492-8.057 2.492-12.475 0-1.824-.271-3.707-.759-5.618h40.069c-.488 1.911-.759 3.794-.759 5.618 0 4.417.887 8.632 2.492 12.475zm203.388 43.771v4.9h-346.806v-4.9c0-13.107 10.664-23.771 23.771-23.771h299.264c13.107 0 23.771 10.663 23.771 23.771zm-82.375-56.246c0-3.229 5.403-11.361 12.477-19.302 7.075 7.942 12.477 16.073 12.477 19.302 0 6.879-5.597 12.475-12.477 12.475s-12.477-5.597-12.477-12.475zm42.455-25.619h-9.162c-5.358-6.934-11.137-12.663-13.945-15.319-3.855-3.646-9.888-3.646-13.743 0-2.808 2.656-8.587 8.386-13.945 15.319h-61.871c-5.358-6.934-11.137-12.663-13.945-15.319-3.855-3.646-9.888-3.646-13.743 0-2.808 2.656-8.587 8.386-13.945 15.319h-61.871c-5.358-6.934-11.137-12.663-13.945-15.319-3.855-3.646-9.888-3.646-13.743 0-2.808 2.656-8.587 8.386-13.945 15.319h-9.162c-16.892 0-30.634-13.741-30.634-30.631v-54.604h328.234v54.604c-.001 16.89-13.743 30.631-30.635 30.631zm63.009-217.116h-12.375v-27.209h12.375c7.501 0 13.604 6.103 13.604 13.604 0 7.502-6.103 13.605-13.604 13.605z"/></svg>