<svg id="Capa_1" enable-background="new 0 0 512 512" height="512" viewBox="0 0 512 512" width="512" xmlns="http://www.w3.org/2000/svg"><g><path d="m436.849 192.741h-32.94v-88.697c20.855-7.595 35.272-27.625 35.272-50.407 0-29.575-24.066-53.637-53.646-53.637h-259.07c-29.58 0-53.646 24.062-53.646 53.637 0 22.783 14.417 42.813 35.272 50.407v88.697h-32.932c-19.335 0-35.065 15.723-35.065 35.05v274.209c0 5.523 4.478 10 10 10h411.813c5.522 0 10-4.477 10-10v-274.201c-.001-19.331-15.727-35.058-35.058-35.058zm0 20c8.303 0 15.058 6.755 15.058 15.058v67.359c-5.221-4.231-11.408-7.314-18.175-8.861v-22.868c0-5.523-4.478-10-10-10s-10 4.477-10 10v22.868c-6.767 1.548-12.954 4.631-18.175 8.862v-67.36c0-8.303 6.755-15.058 15.059-15.058zm-13.118 141.999c-13.679 0-24.807-11.118-24.807-24.784s11.128-24.784 24.807-24.784 24.808 11.118 24.808 24.784-11.129 24.784-24.808 24.784zm-4.55-301.103c0 16.072-11.431 29.958-27.18 33.018-4.699.913-8.093 5.029-8.093 9.816v96.27h-53.918v-88.697c20.855-7.595 35.272-27.625 35.272-50.407 0-12.726-4.456-24.43-11.889-33.637h32.161c18.553 0 33.647 15.089 33.647 33.637zm-299.182 33.017c-15.749-3.06-27.18-16.945-27.18-33.018 0-18.547 15.094-33.636 33.646-33.636h185.152c18.552 0 33.646 15.089 33.646 33.637 0 16.072-11.431 29.958-27.18 33.018-4.699.913-8.093 5.029-8.093 9.816v96.27h-181.898v-96.27c0-4.788-3.394-8.904-8.093-9.817zm-59.905 141.137c0-8.298 6.759-15.05 15.065-15.05h303.799c-2.18 4.565-3.402 9.671-3.402 15.058v264.201h-37.202v-73.865c0-5.523-4.478-10-10-10h-212.336c-5.522 0-10 4.477-10 10v73.865h-45.924zm65.924 264.209v-63.865h192.337v63.865zm269.539 0v-127.247c5.221 4.231 11.408 7.314 18.175 8.862v25.068c0 5.523 4.478 10 10 10s10-4.477 10-10v-25.068c6.767-1.548 12.954-4.631 18.175-8.861v127.246z"/><path d="m116.018 266.636h212.337c5.522 0 10-4.477 10-10s-4.478-10-10-10h-212.337c-5.522 0-10 4.477-10 10s4.477 10 10 10z"/></g></svg>