<svg id="Capa_1" enable-background="new 0 0 512 512" height="512" viewBox="0 0 512 512" width="512" xmlns="http://www.w3.org/2000/svg"><g><path d="m343.596 104.792h-289.596c-5.522 0-10 4.477-10 10v282.417c0 5.523 4.478 10 10 10h289.596c5.522 0 10-4.477 10-10v-282.417c0-5.523-4.478-10-10-10zm-10 282.416h-269.596v-262.416h269.596z"/><path d="m483.108 60.792h-454.216c-15.931 0-28.892 12.96-28.892 28.891v332.634c0 15.931 12.961 28.892 28.892 28.892h454.217c15.931 0 28.892-12.961 28.892-28.892v-332.634c-.001-15.931-12.962-28.891-28.893-28.891zm-463.108 361.525v-332.634c0-4.903 3.989-8.892 8.892-8.892h348.704v350.417h-348.704c-4.903 0-8.892-3.988-8.892-8.891zm472 0c0 4.903-3.989 8.892-8.892 8.892h-85.513v-350.417h85.513c4.902 0 8.892 3.989 8.892 8.892z"/><path d="m454.798 275.858v-6.182c0-5.523-4.478-10-10-10s-10 4.477-10 10v6.182c-12.069 4.16-20.763 15.63-20.763 29.094 0 16.962 13.8 30.763 30.763 30.763s30.763-13.8 30.763-30.763c0-13.463-8.694-24.934-20.763-29.094zm-10 39.857c-5.935 0-10.763-4.828-10.763-10.763s4.828-10.763 10.763-10.763 10.763 4.828 10.763 10.763-4.829 10.763-10.763 10.763z"/><path d="m434.585 176.17h20.426c5.522 0 10-4.477 10-10s-4.478-10-10-10h-20.426c-5.522 0-10 4.477-10 10s4.478 10 10 10z"/><path d="m434.585 222.425h20.426c5.522 0 10-4.477 10-10s-4.478-10-10-10h-20.426c-5.522 0-10 4.477-10 10s4.478 10 10 10z"/><path d="m455.011 359.83h-20.426c-5.522 0-10 4.477-10 10s4.478 10 10 10h20.426c5.522 0 10-4.477 10-10s-4.478-10-10-10z"/><path d="m111.425 359.877h179.055c5.522 0 10-4.477 10-10s-4.478-10-10-10h-38.403l10.098-36.064c16.223-5.041 28.033-20.16 28.033-37.978 0-21.928-17.886-39.767-39.871-39.767-1.358 0-2.709.068-4.051.203-9.275-15.85-26.56-26.026-45.334-26.026s-36.059 10.176-45.334 26.026c-1.342-.135-2.692-.203-4.051-.203-21.985 0-39.871 17.839-39.871 39.767 0 17.818 11.81 32.937 28.033 37.978l10.098 36.064h-38.403c-5.522 0-10 4.477-10 10s4.478 10 10.001 10zm20.271-94.041c0-10.899 8.914-19.767 19.871-19.767 2.209 0 4.375.356 6.438 1.058 5.107 1.739 10.676-.891 12.579-5.94 4.72-12.525 16.924-20.94 30.368-20.94s25.648 8.415 30.368 20.94c1.903 5.05 7.468 7.68 12.579 5.94 2.063-.702 4.229-1.058 6.438-1.058 10.957 0 19.871 8.868 19.871 19.767s-8.914 19.767-19.871 19.767c-5.779 0-11.264-2.499-15.046-6.856-1.974-2.274-4.755-3.445-7.557-3.445-2.219 0-4.449.735-6.301 2.238-5.842 4.746-12.924 7.254-20.481 7.254-7.559 0-14.641-2.508-20.481-7.254-4.187-3.402-10.32-2.869-13.857 1.206-3.782 4.357-9.267 6.856-15.046 6.856-10.958.001-19.872-8.867-19.872-19.766zm29.008 38.71c5.174-1.215 10.055-3.45 14.352-6.576 7.849 4.439 16.793 6.825 25.896 6.825s18.047-2.386 25.896-6.826c4.298 3.126 9.178 5.362 14.353 6.576l-9.894 35.332h-60.709z"/></g></svg>