<svg id="Capa_1" enable-background="new 0 0 512 512" height="512" viewBox="0 0 512 512" width="512" xmlns="http://www.w3.org/2000/svg"><g><path d="m452.081 164.608h-12.326v-19.651c0-5.523-4.478-10-10-10h-256.518l-26.392-112.008c-.034-.144-.071-.287-.111-.429-4.643-16.414-21.773-25.989-38.189-21.347-7.951 2.25-14.551 7.461-18.583 14.674-3.988 7.135-4.992 15.383-2.836 23.257l22.109 95.853h-26.99c-5.523 0-10 4.477-10 10v19.651h-12.326c-18.504 0-33.558 15.054-33.558 33.558s15.054 33.558 33.558 33.558h12.325v143.134c0 27.286 21.731 49.592 48.795 50.52-.488 1.911-.76 3.794-.76 5.618 0 4.401.882 8.6 2.477 12.431h-16.076c-24.098 0-43.702 19.604-43.702 43.702v14.871c0 5.523 4.477 10 10 10h366.043c5.522 0 10-4.477 10-10v-14.872c0-24.098-19.604-43.702-43.702-43.702h-16.077c1.595-3.83 2.477-8.029 2.477-12.431 0-1.824-.271-3.707-.76-5.618 27.064-.927 48.795-23.233 48.795-50.52v-143.133h12.326c18.504 0 33.558-15.054 33.558-33.558s-15.053-33.558-33.557-33.558zm-359.837 64.839h327.51v80.936h-327.51zm14.321-195.054c-.037-.159-.077-.317-.122-.475-.795-2.811-.448-5.763.977-8.313s3.758-4.392 6.569-5.187c5.745-1.625 11.734 1.675 13.447 7.367l25.253 107.172h-22.93zm-14.321 120.565h327.51v54.489h-327.51zm-45.882 43.208c0-7.476 6.082-13.558 13.558-13.558h12.325v27.115h-12.326c-7.475.001-13.557-6.081-13.557-13.557zm93.918 232.829c0-3.217 5.381-11.317 12.431-19.233 7.05 7.917 12.431 16.016 12.431 19.233 0 6.854-5.576 12.431-12.431 12.431s-12.431-5.576-12.431-12.431zm189.056 12.431h-43.383c1.595-3.83 2.477-8.029 2.477-12.431 0-1.814-.268-3.687-.752-5.587h39.933c-.484 1.901-.752 3.773-.752 5.587 0 4.401.882 8.601 2.477 12.431zm-60.906-12.431c0 6.854-5.576 12.431-12.431 12.431s-12.431-5.576-12.431-12.431c0-3.217 5.381-11.317 12.431-19.233 7.051 7.917 12.431 16.016 12.431 19.233zm-42.384 12.431h-43.383c1.595-3.83 2.477-8.029 2.477-12.431 0-1.814-.268-3.687-.752-5.587h39.932c-.484 1.901-.752 3.773-.752 5.587.001 4.401.883 8.601 2.478 12.431zm202.975 43.702v4.872h-346.043v-4.872c0-13.069 10.633-23.702 23.702-23.702h298.639c13.069 0 23.702 10.633 23.702 23.702zm-82.162-56.133c0-3.217 5.381-11.317 12.43-19.233 7.05 7.917 12.431 16.016 12.431 19.233 0 6.854-5.576 12.431-12.431 12.431-6.854 0-12.43-5.576-12.43-12.431zm42.347-25.587h-9.134c-5.346-6.917-11.11-12.633-13.911-15.283-3.855-3.646-9.889-3.647-13.744 0-2.801 2.65-8.565 8.365-13.911 15.282h-61.723c-5.346-6.917-11.11-12.633-13.911-15.283-3.855-3.646-9.888-3.646-13.744 0-2.802 2.65-8.566 8.365-13.912 15.283h-61.722c-5.346-6.917-11.11-12.633-13.912-15.283-3.855-3.646-9.888-3.646-13.743 0-2.802 2.65-8.566 8.365-13.912 15.283h-9.132c-16.845 0-30.55-13.705-30.55-30.55v-44.475h327.51v44.475c0 16.846-13.704 30.551-30.549 30.551zm62.875-193.684h-12.326v-27.115h12.326c7.476 0 13.558 6.082 13.558 13.558s-6.083 13.557-13.558 13.557z"/><path d="m315.441 106.831c.353 4.963 4.302 8.912 9.265 9.265.277.02 1.735.114 4.062.114 10.011 0 36.078-1.753 53.094-18.768 20.971-20.971 18.759-55.688 18.654-57.156-.353-4.964-4.302-8.912-9.265-9.265-1.472-.108-36.186-2.316-57.156 18.654-20.97 20.971-18.758 55.689-18.654 57.156zm32.796-43.013c9.01-9.009 22.846-11.785 32.056-12.594-.824 9.229-3.61 23.112-12.574 32.076-9.008 9.008-22.846 11.785-32.055 12.594.824-9.229 3.609-23.112 12.573-32.076z"/><path d="m287.01 67.705c18.666 0 33.853-15.186 33.853-33.852 0-18.667-15.186-33.853-33.853-33.853s-33.853 15.186-33.853 33.853c.001 18.666 15.187 33.852 33.853 33.852zm0-47.705c7.639 0 13.853 6.214 13.853 13.853s-6.214 13.852-13.853 13.852-13.853-6.214-13.853-13.852 6.215-13.853 13.853-13.853z"/><path d="m235.102 116.863c15.938 0 28.905-12.967 28.905-28.905s-12.967-28.904-28.905-28.904-28.904 12.966-28.904 28.904 12.966 28.905 28.904 28.905zm0-37.809c4.91 0 8.905 3.995 8.905 8.904 0 4.91-3.995 8.905-8.905 8.905s-8.904-3.995-8.904-8.905 3.995-8.904 8.904-8.904z"/></g></svg>