<svg id="Capa_1" enable-background="new 0 0 512 512" height="512" viewBox="0 0 512 512" width="512" xmlns="http://www.w3.org/2000/svg"><g><path d="m351.396 98.433h-98.693c-17.579 0-31.88 14.256-31.88 31.779v24.396c0 5.523 4.477 10 10 10h142.454c5.523 0 10-4.477 10-10v-24.396c0-17.523-14.301-31.779-31.881-31.779zm11.881 46.175h-122.454v-14.396c0-6.495 5.33-11.779 11.88-11.779h98.693c6.551 0 11.88 5.284 11.88 11.779v14.396z"/><path d="m362.802 37.487v-6.844c0-16.897-13.746-30.643-30.643-30.643h-60.929c-16.896 0-30.643 13.746-30.643 30.643v6.381h-82.741c-44.004 0-79.804 35.655-79.804 79.482v98.764c0 5.523 4.477 10 10 10h144.875v31.063c0 5.523 4.477 10 10 10h22.164v47.4h-171.223c-5.523 0-10 4.477-10 10v82.31c0 35.342 17.393 66.697 44.068 85.958h-29.968c-5.523 0-10 4.477-10 10s4.477 10 10 10h316.085c5.523 0 10-4.477 10-10s-4.477-10-10-10h-29.968c26.675-19.26 44.068-50.616 44.068-85.958v-82.31c0-5.523-4.477-10-10-10h-68.733v-47.4h22.164c5.523 0 10-4.477 10-10v-31.063h42.385c5.523 0 10-4.477 10-10v-98.764c-.001-40.918-31.206-74.712-71.157-79.019zm-102.215-6.844c0-5.868 4.774-10.643 10.643-10.643h60.929c5.868 0 10.643 4.774 10.643 10.643v6.381h-82.214v-6.381zm-7.669 194.626h44.327v21.063h-44.327zm155.224 180.773c0 47.397-38.561 85.958-85.958 85.958h-132.369c-47.397 0-85.958-38.561-85.958-85.958v-72.31h304.284v72.31zm-78.733-92.309h-44.327v-47.4h44.327zm32.163-67.4h-44.327v-21.063h44.327zm52.386-41.064h-315.916v-88.764c0-32.798 26.828-59.482 59.804-59.482h196.308c32.976 0 59.803 26.683 59.803 59.481v88.765z"/><path d="m189.458 144.608h-52.328c-5.523 0-10 4.477-10 10s4.477 10 10 10h52.328c5.523 0 10-4.477 10-10s-4.477-10-10-10z"/><path d="m189.458 99h-52.328c-5.523 0-10 4.477-10 10s4.477 10 10 10h52.328c5.523 0 10-4.477 10-10s-4.477-10-10-10z"/></g></svg>