<svg id="Capa_1" enable-background="new 0 0 512 512" height="512" viewBox="0 0 512 512" width="512" xmlns="http://www.w3.org/2000/svg"><g><path d="m481.42 316.109h-78.17c-5.523 0-10 4.477-10 10v10.591h-25.983v-11.572c0-5.523-4.477-10-10-10h-347.267c-5.523 0-10 4.477-10 10v13.062c0 55.716 45.328 101.044 101.044 101.044h165.178c49.395 0 90.626-35.627 99.345-82.534h27.682v10.59c0 5.523 4.477 10 10 10h78.17c16.862 0 30.58-13.718 30.58-30.602.001-16.861-13.717-30.579-30.579-30.579zm-134.153 22.081c0 44.688-36.356 81.044-81.044 81.044h-165.179c-44.688 0-81.044-36.356-81.044-81.044v-3.062h327.267zm134.153 19.101h-68.17v-21.181h68.17c5.833 0 10.58 4.746 10.58 10.602 0 5.832-4.746 10.579-10.58 10.579z"/><path d="m469.4 80.195h-40.892c-1.135-4.277-5.032-7.429-9.666-7.429s-8.531 3.152-9.666 7.429h-39.962c-1.135-4.277-5.032-7.429-9.666-7.429s-8.531 3.152-9.666 7.429h-39.962c-1.135-4.277-5.032-7.429-9.666-7.429s-8.531 3.152-9.666 7.429h-7.288c-29.144 0-58.005 7.498-83.465 21.682l-35.778 19.934c-.539.301-1.044.647-1.51 1.033h-39.184c-5.523 0-10 4.477-10 10v40.781c0 5.523 4.477 10 10 10h39.183c.466.386.971.732 1.51 1.033l35.779 19.934c25.46 14.184 54.321 21.682 83.464 21.682h7.288c1.135 4.277 5.032 7.429 9.666 7.429s8.531-3.152 9.666-7.429h39.962c1.135 4.277 5.032 7.429 9.666 7.429s8.531-3.152 9.666-7.429h39.962c1.135 4.277 5.032 7.429 9.666 7.429s8.531-3.152 9.666-7.429h40.893c23.49 0 42.6-19.11 42.6-42.6v-60.877c0-23.491-19.11-42.602-42.6-42.602zm-99.851 20h39.293v106.078h-39.293zm-20 106.078h-39.293v-106.078h39.293zm-216.185-63.43h25.561v20.781h-25.561zm76.207 44.277-30.646-17.074v-33.624l30.646-17.074c22.49-12.53 47.985-19.153 73.73-19.153h6.954v106.078h-6.954c-25.744 0-51.239-6.623-73.73-19.153zm282.429-3.447c0 12.462-10.138 22.6-22.6 22.6h-40.558v-106.078h40.558c12.462 0 22.6 10.138 22.6 22.6z"/><path d="m167.921 252.809c0-13.951-17.265-31.366-22.556-36.371-3.855-3.647-9.889-3.647-13.744 0-5.291 5.005-22.555 22.42-22.555 36.371 0 16.227 13.201 29.428 29.427 29.428 16.227-.001 29.428-13.202 29.428-29.428zm-38.856.036c.158-2.489 4.189-8.561 9.428-14.641 5.232 6.071 9.257 12.132 9.428 14.629-.013 5.187-4.237 9.403-9.428 9.403-5.198 0-9.427-4.229-9.428-9.391z"/></g></svg>