<svg id="Capa_1" enable-background="new 0 0 512 512" height="512" viewBox="0 0 512 512" width="512" xmlns="http://www.w3.org/2000/svg"><g><path d="m155.297 267.676c-17.242 0-31.269 14.027-31.269 31.269s14.027 31.27 31.269 31.27 31.269-14.027 31.269-31.27c0-17.242-14.027-31.269-31.269-31.269zm0 42.538c-6.214 0-11.269-5.056-11.269-11.27s5.055-11.269 11.269-11.269c6.213 0 11.269 5.055 11.269 11.269s-5.055 11.27-11.269 11.27z"/><path d="m356.703 267.676c-17.242 0-31.269 14.027-31.269 31.269s14.027 31.27 31.269 31.27 31.269-14.027 31.269-31.27c0-17.242-14.027-31.269-31.269-31.269zm0 42.538c-6.214 0-11.269-5.056-11.269-11.27s5.055-11.269 11.269-11.269 11.269 5.055 11.269 11.269-5.055 11.27-11.269 11.27z"/><path d="m291.071 160.64c0-19.338-15.733-35.07-35.071-35.07s-35.071 15.732-35.071 35.07c0 19.339 15.733 35.071 35.071 35.071s35.071-15.732 35.071-35.071zm-50.142 0c0-8.31 6.761-15.07 15.071-15.07s15.071 6.761 15.071 15.07c0 8.311-6.761 15.071-15.071 15.071s-15.071-6.761-15.071-15.071z"/><path d="m502 359.611h-39.278c10.491-18.365 16.133-39.332 16.133-60.667 0-67.355-54.797-122.152-122.152-122.152-4.626 0-9.193.259-13.686.762 1.076-5.542 1.618-11.195 1.618-16.915 0-48.873-39.761-88.634-88.634-88.634s-88.634 39.761-88.634 88.634c0 5.727.543 11.383 1.619 16.928-4.517-.513-9.086-.775-13.688-.775-67.355 0-122.152 54.797-122.152 122.152 0 21.56 5.529 42.276 16.096 60.667h-39.242c-5.523 0-10 4.478-10 10v14.131c0 31.018 25.235 56.252 56.252 56.252h399.495c31.018 0 56.252-25.234 56.252-56.252v-14.131c.001-5.522-4.476-10-9.999-10zm-43.145-60.667c0 21.826-7.058 43.188-19.96 60.667h-35.294c18.125-14.044 29.813-36.016 29.813-60.667 0-42.298-34.412-76.71-76.71-76.71s-76.71 34.412-76.71 76.71c0 24.651 11.688 46.623 29.813 60.667h-35.294c-12.903-17.479-19.96-38.842-19.96-60.667 0-56.327 45.825-102.152 102.152-102.152 56.325 0 102.15 45.825 102.15 102.152zm-158.862 0c0-31.27 25.44-56.71 56.71-56.71s56.71 25.44 56.71 56.71c0 31.271-25.44 56.711-56.71 56.711s-56.71-25.44-56.71-56.711zm-112.627-138.304c0-37.845 30.789-68.634 68.634-68.634s68.634 30.789 68.634 68.634c0 7.335-1.148 14.521-3.417 21.408-26.762 8.14-49.661 25.238-65.188 47.786-15.811-22.985-38.977-39.718-65.229-47.733-2.28-6.902-3.434-14.103-3.434-21.461zm-134.221 138.304c0-56.327 45.825-102.152 102.152-102.152 36.413 0 70.347 19.619 88.525 51.14.113.201.546.989 1.043 1.894-6.63 15.038-10.314 31.656-10.314 49.119 0 16.987 3.577 33.74 10.329 49.132-2.198 3.997-4.675 7.863-7.389 11.535h-35.296c18.125-14.044 29.813-36.016 29.813-60.667 0-42.298-34.412-76.71-76.71-76.71s-76.711 34.412-76.711 76.71c0 24.651 11.688 46.623 29.813 60.667h-35.298c-13.056-17.658-19.957-38.634-19.957-60.668zm45.441 0c0-31.27 25.44-56.71 56.711-56.71 31.27 0 56.71 25.44 56.71 56.71 0 31.271-25.44 56.711-56.71 56.711s-56.711-25.44-56.711-56.711zm393.414 84.798c0 19.989-16.263 36.252-36.252 36.252h-399.496c-19.99 0-36.252-16.263-36.252-36.252v-4.131h472z"/></g></svg>