<svg id="Capa_1" enable-background="new 0 0 512 512" height="512" viewBox="0 0 512 512" width="512" xmlns="http://www.w3.org/2000/svg"><g><path d="m89.999 317.002h130.113c5.523 0 10-4.477 10-10v-115.973c0-5.523-4.477-10-10-10h-130.113c-5.523 0-10 4.477-10 10v115.973c0 5.523 4.477 10 10 10zm10-115.973h110.113v95.973h-110.113z"/><path d="m502 336.715h-26.32v-138.151c20.421-7.503 34.524-27.151 34.524-49.492 0-29.069-23.65-52.718-52.72-52.718h-402.969c-29.07 0-52.72 23.649-52.72 52.718 0 22.342 14.104 41.991 34.524 49.493v138.15h-26.319c-5.523 0-10 4.477-10 10v35.164c0 18.62 15.148 33.769 33.769 33.769h444.463c18.62 0 33.769-15.148 33.769-33.769v-35.164c-.001-5.523-4.478-10-10.001-10zm-228.21 0v-135.71l181.89.023v135.687zm183.695-220.362c18.042 0 32.72 14.678 32.72 32.719 0 15.372-10.747 28.688-25.666 31.958l-167.018-.021c6.806-8.936 10.794-20.056 10.794-31.937 0-12.35-4.269-23.723-11.409-32.718h160.579zm-435.69 32.718c0-18.041 14.678-32.718 32.72-32.718h201.08c18.042 0 32.72 14.677 32.72 32.718 0 15.634-11.116 29.141-26.432 32.116-4.7.913-8.093 5.029-8.093 9.816v145.711h-197.47v-145.71c0-4.788-3.393-8.903-8.093-9.816-15.315-2.976-26.432-16.483-26.432-32.117zm470.205 232.807c0 7.592-6.177 13.769-13.769 13.769h-444.462c-7.592 0-13.769-6.177-13.769-13.769v-25.164h472z"/></g></svg>