<svg id="Capa_1" enable-background="new 0 0 512.146 512.146" height="512" viewBox="0 0 512.146 512.146" width="512" xmlns="http://www.w3.org/2000/svg"><g><path d="m451.978 367.833h-161.16c-5.522 0-10 4.477-10 10h-254.617c-5.523 0-10 4.477-10 10 0 27.467 16.673 50.175 48.217 65.67 23.773 11.678 55.962 18.65 86.104 18.65h67.801c19.509 0 35.927-13.49 40.417-31.631h22.078v5.243c0 5.523 4.478 10 10 10h161.16c24.243 0 43.966-19.723 43.966-43.966-.001-24.243-19.723-43.966-43.966-43.966zm-202.025 52.689c-5.523 0-10 4.477-10 10 0 11.927-9.704 21.631-21.631 21.631h-67.801c-43.744 0-103.945-16.943-113.126-54.32h243.422v22.689zm202.025 15.243h-151.16v-47.932h151.16c13.215 0 23.966 10.751 23.966 23.966-.001 13.215-10.752 23.966-23.966 23.966z"/><path d="m499.418 160.676c-8.845-9.416-21.323-14.816-34.236-14.816-7.378 0-14.734 1.759-21.273 5.086-3.564 1.813-11.687 4.076-19.482 5.944v-84.05c0-18.112-14.735-32.847-32.847-32.847h-358.733c-18.112 0-32.847 14.735-32.847 32.847v239.965c0 18.112 14.735 32.847 32.847 32.847h358.732c18.111 0 32.847-14.735 32.847-32.847v-84.178c7.682 1.773 15.423 3.91 18.615 5.619 6.8 3.641 14.418 5.539 22.166 5.539.755 0 1.512-.018 2.268-.054 23.523-1.126 43.103-20.409 44.575-43.9.822-13.121-3.663-25.606-12.632-35.155zm-94.992 152.129c0 7.084-5.763 12.847-12.847 12.847h-358.732c-7.084 0-12.847-5.763-12.847-12.847v-239.965c0-7.084 5.763-12.847 12.847-12.847h358.732c7.084 0 12.847 5.763 12.847 12.847zm87.663-118.226c-.844 13.471-12.076 24.529-25.569 25.174-4.91.237-9.764-.85-14.038-3.139-6.568-3.516-19.367-6.637-28.056-8.486v-30.708c8.662-1.944 21.878-5.253 28.553-8.649 3.796-1.932 7.901-2.911 12.203-2.911 7.523 0 14.505 3.022 19.658 8.508 5.148 5.482 7.723 12.659 7.249 20.211z"/><path d="m322.482 142.513c-29.186 0-52.93 23.744-52.93 52.93s23.744 52.93 52.93 52.93c29.187 0 52.931-23.744 52.931-52.93s-23.744-52.93-52.931-52.93zm0 85.86c-18.157 0-32.93-14.772-32.93-32.93s14.772-32.93 32.93-32.93 32.931 14.772 32.931 32.93-14.772 32.93-32.931 32.93z"/><path d="m208.262 142.513c-9.824 0-19.031 2.69-26.924 7.373-8.128-4.841-17.332-7.373-26.975-7.373-9.824 0-19.031 2.69-26.923 7.372-8.127-4.841-17.331-7.372-26.975-7.372-29.186 0-52.93 23.744-52.93 52.93s23.744 52.93 52.93 52.93c9.493 0 18.842-2.587 26.959-7.382 7.896 4.688 17.109 7.382 26.939 7.382 9.492 0 18.842-2.587 26.96-7.382 7.896 4.688 17.109 7.382 26.939 7.382 29.186 0 52.93-23.744 52.93-52.93-.001-29.186-23.745-52.93-52.93-52.93zm-140.727 52.93c0-18.158 14.772-32.93 32.93-32.93 3.83 0 7.548.641 11.051 1.887-6.34 8.726-10.082 19.456-10.082 31.043s3.743 22.317 10.083 31.043c-3.501 1.246-7.219 1.887-11.051 1.887-18.159 0-32.931-14.772-32.931-32.93zm53.898 0c0-18.158 14.772-32.93 32.93-32.93 3.83 0 7.548.641 11.051 1.887-6.34 8.726-10.083 19.456-10.083 31.043s3.743 22.317 10.083 31.043c-3.501 1.246-7.219 1.887-11.051 1.887-18.157 0-32.93-14.772-32.93-32.93zm86.829 32.93c-18.158 0-32.93-14.772-32.93-32.93s14.772-32.93 32.93-32.93 32.93 14.772 32.93 32.93-14.773 32.93-32.93 32.93z"/></g></svg>