<svg id="Capa_1" enable-background="new 0 0 512 512" height="512" viewBox="0 0 512 512" width="512" xmlns="http://www.w3.org/2000/svg"><g><path d="m487.401 170.176c0-51.386-41.919-93.191-93.443-93.191-5.618 0-11.202.498-16.687 1.485-9.709-21.647-24.971-40.219-44.53-54.078-22.519-15.957-49.055-24.392-76.741-24.392-52.389 0-99.989 31.171-121.266 78.47-5.486-.987-11.072-1.486-16.692-1.486-51.524 0-93.443 41.805-93.443 93.191 0 43.939 30.649 80.872 71.745 90.655l26.099 242.241c.547 5.079 4.834 8.929 9.942 8.929h247.23c5.108 0 9.396-3.85 9.942-8.929l26.09-242.238c41.101-9.78 71.754-46.716 71.754-90.657zm-346.036 321.824-8.147-75.618h245.561l-8.144 75.618zm239.568-95.618h-249.87l-14.332-133.025c.436.006.873.009 1.31.009 22.528 0 43.742-7.846 60.625-22.261 22.447 16.06 49.584 24.819 77.333 24.819s54.886-8.76 77.333-24.819c16.883 14.416 38.097 22.261 60.625 22.261.435 0 .869-.003 1.302-.009zm13.025-153.015c-20.084 0-38.836-7.926-52.802-22.319-3.625-3.735-9.507-4.066-13.527-.761-20.11 16.533-45.549 25.638-71.629 25.638s-51.519-9.105-71.629-25.638c-4.021-3.307-9.905-2.975-13.527.761-13.966 14.393-32.718 22.319-52.802 22.319-40.497 0-73.443-32.833-73.443-73.191s32.946-73.191 73.443-73.191c3.289 0 6.56.217 9.795.646-3.152 11.458-4.745 23.299-4.745 35.332 0 5.523 4.478 10 10 10s10-4.477 10-10c0-13.373 2.311-26.458 6.867-38.89.063-.173.127-.346.191-.518.001-.002.001-.004.002-.005 16.381-44.017 58.846-73.55 105.848-73.55 47.016 0 89.577 29.622 105.908 73.711 4.645 12.541 7 25.747 7 39.251 0 5.523 4.478 10 10 10s10-4.477 10-10c0-12.036-1.593-23.875-4.745-35.332 3.234-.429 6.506-.646 9.795-.646 40.497 0 73.443 32.833 73.443 73.191s-32.946 73.192-73.443 73.192z"/><path d="m186.622 295.893c-.313-5.514-5.027-9.731-10.55-9.418-5.515.313-9.731 5.036-9.419 10.55l4.099 72.333c.302 5.321 4.712 9.435 9.976 9.435.19 0 .382-.005.574-.017 5.515-.313 9.731-5.036 9.419-10.55z"/><path d="m335.928 286.475c-5.506-.313-10.237 3.905-10.55 9.418l-4.099 72.333c-.313 5.514 3.904 10.237 9.419 10.55.192.011.384.017.574.017 5.264 0 9.674-4.114 9.976-9.435l4.099-72.333c.312-5.514-3.905-10.237-9.419-10.55z"/><path d="m256 281.945c-5.522 0-10 4.477-10 10v74.642c0 5.523 4.478 10 10 10s10-4.477 10-10v-74.642c0-5.523-4.478-10-10-10z"/></g></svg>