<svg id="Capa_1" enable-background="new 0 0 512.002 512.002" height="512" viewBox="0 0 512.002 512.002" width="512" xmlns="http://www.w3.org/2000/svg"><path d="m511.916 250.881c-1.332-21.433-18.498-38.615-39.929-39.968-12.047-.765-23.915 3.612-32.551 11.998-1.5 1.457-3.15 2.74-4.925 3.839v-21.951c0-5.523-4.478-10-10-10h-31.449v-114.851c0-21.018-17.1-38.117-38.117-38.117s-38.117 17.099-38.117 38.117v4.72c-3.339-1.034-6.844-1.579-10.402-1.579-5.5 0-10.709 1.262-15.355 3.512v-2.117c0-19.495-15.86-35.355-35.355-35.355-19.494 0-35.354 15.86-35.354 35.355v7.247c-.008 8.46-6.896 15.342-15.355 15.342-8.46 0-15.349-6.882-15.355-15.333v-7.256c0-19.495-15.86-35.355-35.354-35.355-19.495 0-35.355 15.86-35.355 35.355v110.316h-31.453c-5.522 0-10 4.477-10 10v21.732c-1.98-1.218-3.869-2.655-5.639-4.297-7.931-7.356-18.258-11.408-29.08-11.408-11.757 0-23.119 4.915-31.173 13.485-8.167 8.691-12.256 20.055-11.513 31.999 1.332 21.433 18.498 38.615 39.929 39.968.9.057 1.799.085 2.696.085 11.109 0 21.864-4.324 29.854-12.083 1.5-1.457 3.15-2.74 4.925-3.839v26.762c0 5.523 4.478 10 10 10h31.449v117.613c0 19.495 15.86 35.355 35.355 35.355 19.494 0 35.354-15.86 35.354-35.355v-48.171c.007-8.459 6.896-15.341 15.355-15.341s15.348 6.882 15.355 15.333v3.758c0 19.495 15.86 35.355 35.354 35.355 5.5 0 10.709-1.262 15.355-3.512v9.756c0 19.495 15.86 35.355 35.355 35.355 18.991 0 34.533-15.051 35.323-33.852 4.17 1.541 8.63 2.358 13.196 2.358 21.018 0 38.117-17.099 38.117-38.117v-80.537h31.449c5.522 0 10-4.477 10-10v-26.542c1.98 1.218 3.869 2.655 5.639 4.297 7.931 7.356 18.259 11.408 29.081 11.408 11.756 0 23.118-4.915 31.171-13.485 8.173-8.69 12.262-20.055 11.519-31.999zm-372.976-166.398c0-8.467 6.889-15.355 15.355-15.355s15.354 6.889 15.354 15.355v7.264c.017 19.478 15.877 35.325 35.355 35.325s35.338-15.846 35.355-35.333v-7.256c0-8.467 6.888-15.355 15.354-15.355 8.467 0 15.355 6.889 15.355 15.355v33.96c0 5.523 4.478 10 10 10s10-4.477 10-10c0-8.467 6.889-15.355 15.355-15.355 4.923 0 9.428 2.276 12.36 6.244 2.567 3.472 7.073 4.904 11.171 3.554 4.101-1.351 6.871-5.181 6.871-9.498v-23.44c0-9.99 8.127-18.117 18.117-18.117s18.117 8.127 18.117 18.117v114.851h-234.119zm-80.308 185.45c-4.665 4.53-10.832 6.796-17.357 6.386-11.206-.708-20.53-10.041-21.228-21.249-.396-6.377 1.779-12.436 6.127-17.062 4.352-4.631 10.246-7.182 16.598-7.182 5.761 0 11.258 2.156 15.479 6.071 5.687 5.275 12.229 9.221 19.24 11.646v9.971c-7.101 2.361-13.516 6.231-18.859 11.419zm314.431 127.807c0 9.99-8.127 18.117-18.117 18.117-5.96 0-11.542-2.936-14.932-7.853-2.485-3.604-7.023-5.175-11.206-3.872-4.18 1.301-7.027 5.17-7.027 9.548v18.315c0 8.467-6.888 15.355-15.354 15.355s-15.355-6.888-15.355-15.355v-41.6c0-5.523-4.478-10-10-10s-10 4.477-10 10c0 8.467-6.889 15.355-15.355 15.355-8.467 0-15.354-6.889-15.354-15.355v-3.768c-.018-19.478-15.878-35.324-35.355-35.324-19.479 0-35.339 15.847-35.355 35.333v48.18c0 8.467-6.888 15.355-15.354 15.355s-15.355-6.888-15.355-15.355v-117.613h234.123v80.537zm41.449-100.537h-317.022v-82.404h317.021v82.404zm71.316-28.019c-4.352 4.631-10.246 7.182-16.597 7.182-5.762 0-11.259-2.156-15.479-6.071-5.687-5.275-12.229-9.221-19.24-11.646v-9.971c7.101-2.361 13.516-6.231 18.858-11.419 4.664-4.53 10.825-6.8 17.357-6.386 11.206.708 20.53 10.041 21.228 21.249.397 6.377-1.779 12.436-6.127 17.062z"/></svg>